<svg xmlns="http://www.w3.org/2000/svg" viewBox="0 0 64.7 64.7"><defs><style>.cls-1,.cls-3{fill:#06448e;}.cls-2{fill:#af1e1e;}.cls-3{font-size:24.31px;font-family:Arial-Black, Arial Black;letter-spacing:-0.02em;}</style></defs><title>acerca7</title><g id="Capa_2" data-name="Capa 2"><g id="Layer_1" data-name="Layer 1"><path class="cls-1" d="M32.35,64.7A32.35,32.35,0,1,1,64.7,32.35,32.38,32.38,0,0,1,32.35,64.7Zm0-58.54A26.19,26.19,0,1,0,58.54,32.35,26.22,26.22,0,0,0,32.35,6.16Z"/><path class="cls-2" d="M32.35,54.33a22,22,0,1,1,22-22A22,22,0,0,1,32.35,54.33Zm0-40.88a18.9,18.9,0,1,0,18.9,18.9A18.92,18.92,0,0,0,32.35,13.45Z"/><text class="cls-3" transform="translate(23.72 40.59)">7</text></g></g></svg>