<?xml version="1.0" encoding="utf-8"?>
<!-- Generator: Adobe Illustrator 22.0.1, SVG Export Plug-In . SVG Version: 6.00 Build 0)  -->
<svg version="1.0" id="Capa_1" xmlns="http://www.w3.org/2000/svg" xmlns:xlink="http://www.w3.org/1999/xlink" x="0px" y="0px"
	 viewBox="0 0 326.9 289.6" style="enable-background:new 0 0 326.9 289.6;" xml:space="preserve">
<style type="text/css">
	.st0{fill:url(#SVGID_1_);}
	.st1{fill:url(#SVGID_2_);}
	.st2{fill:#606060;}
</style>
<title>proyecto2</title>
<linearGradient id="SVGID_1_" gradientUnits="userSpaceOnUse" x1="1.101442e-03" y1="99.8141" x2="591.6311" y2="99.8141" gradientTransform="matrix(1 0 0 -1 0 288.7717)">
	<stop  offset="0" style="stop-color:#13226F"/>
	<stop  offset="0.26" style="stop-color:#13226F"/>
	<stop  offset="0.99" style="stop-color:#B21E1C"/>
	<stop  offset="1" style="stop-color:#B21E1C"/>
</linearGradient>
<path class="st0" d="M320.1,91.4c-7.2-5.2-17.2-3.6-22.3,3.6c-0.3,0.5-0.6,0.9-0.9,1.4l-88.2,152.8c-2.9,5-8.2,8-14,8H83.4
	c-5.8,0-11.1-3.1-14-8.1l-39.3-68c-4.5-7.7-14.3-10.4-22.1-5.9c-2.5,1.4-4.5,3.5-5.9,5.9l0,0c-2.9,5-2.9,11.1,0,16.1l48.6,84.2
	c2.9,5,8.2,8.1,14,8.1h148.5c5.8,0,11.1-3.1,14-8.1c66.5-115.1,71.9-124.6,97.5-168.9c4.1-7.1,2.2-16.1-4.5-20.9L320.1,91.4z
	 M208.6,249.2L208.6,249.2l36.1-62.4C236.4,201,224.7,221.3,208.6,249.2z M252.2,173.7c-0.1,0.1-0.2,0.3-0.3,0.4L252.2,173.7z
	 M245.8,184.8l-0.8,1.4C245.2,185.8,245.5,185.3,245.8,184.8L245.8,184.8z"/>
<linearGradient id="SVGID_2_" gradientUnits="userSpaceOnUse" x1="-308.18" y1="230.4959" x2="280.29" y2="230.4959" gradientTransform="matrix(1 0 0 -1 0 288.7717)">
	<stop  offset="0" style="stop-color:#13226F"/>
	<stop  offset="0.26" style="stop-color:#13226F"/>
	<stop  offset="0.99" style="stop-color:#B21E1C"/>
	<stop  offset="1" style="stop-color:#B21E1C"/>
</linearGradient>
<path class="st1" d="M278.1,92.3L229.5,8.1c-2.9-5-8.2-8.1-14-8.1H67c-5.8,0-11.1,3.1-14,8.1L18.7,67.5c-4.2,7.4-2,16.7,5.1,21.4
	l0.3,0.2c7.4,4.8,17.3,2.8,22.1-4.6c0.2-0.2,0.3-0.5,0.5-0.7l25-43.3c2.9-5,8.2-8.1,14-8.1h111.2c5.8,0,11.1,3.1,14,8.1l39.3,68.1
	c4.5,7.7,14.3,10.4,22.1,5.9c2.5-1.4,4.5-3.5,5.9-5.9l0,0C281.1,103.4,281,97.3,278.1,92.3z"/>
<g>
	<g>
		<path class="st2" d="M90.1,126.5L90.1,126.5l-1.4,12.9h-5.2l-2.7-24.2h3.7l2,19.1h0.1l1.8-19.1H92l1.9,19.2h0.1l1.9-19.2h3.3
			l-2.7,24.2h-5.1L90.1,126.5z"/>
		<path class="st2" d="M104.9,125.4h5.2v3.5h-5.2v7.1h6.6v3.5h-10.4v-24.2h10.4v3.5h-6.6V125.4z"/>
		<path class="st2" d="M113.8,115.2h3.8v20.8h6.3v3.5h-10.1V115.2z"/>
		<path class="st2" d="M125.6,115.2h3.8v20.8h6.3v3.5h-10.1V115.2z"/>
		<path class="st2" d="M142.4,114.9c3.7,0,5.6,2.2,5.6,6.1v0.8h-3.6v-1c0-1.7-0.7-2.4-1.9-2.4c-1.2,0-1.9,0.7-1.9,2.4
			c0,1.8,0.8,3.1,3.3,5.3c3.2,2.8,4.2,4.8,4.2,7.6c0,3.9-1.9,6.1-5.7,6.1s-5.7-2.2-5.7-6.1v-1.5h3.6v1.7c0,1.7,0.8,2.4,2,2.4
			c1.2,0,2-0.6,2-2.4c0-1.8-0.8-3.1-3.3-5.3c-3.2-2.8-4.2-4.8-4.2-7.6C136.8,117.1,138.7,114.9,142.4,114.9z"/>
		<path class="st2" d="M154.1,139.4h-3.8v-24.2h3.8v10.4h4.3v-10.4h3.9v24.2h-3.9V129h-4.3V139.4z"/>
		<path class="st2" d="M177.3,139.4h-3.8l-0.7-4.4h-4.7l-0.7,4.4H164l3.9-24.2h5.6L177.3,139.4z M168.7,131.7h3.7l-1.8-12.3h-0.1
			L168.7,131.7z"/>
		<path class="st2" d="M187.1,139.4c-0.2-0.6-0.3-1-0.3-3v-3.8c0-2.2-0.8-3.1-2.5-3.1h-1.3v9.9h-3.8v-24.2h5.7
			c3.9,0,5.6,1.8,5.6,5.6v1.9c0,2.5-0.8,4.1-2.5,4.9v0.1c1.9,0.8,2.5,2.6,2.5,5.1v3.7c0,1.2,0,2,0.4,2.9H187.1z M182.9,118.6v7.4
			h1.5c1.4,0,2.3-0.6,2.3-2.6v-2.4c0-1.7-0.6-2.5-1.9-2.5H182.9z"/>
		<path class="st2" d="M204.3,121.1v3.1c0,3.9-1.9,6-5.7,6h-1.8v9.1H193v-24.2h5.6C202.4,115.2,204.3,117.3,204.3,121.1z
			 M196.8,118.6v8.2h1.8c1.2,0,1.9-0.6,1.9-2.3v-3.6c0-1.7-0.7-2.3-1.9-2.3H196.8z"/>
		<path class="st2" d="M62.5,150.2h3.8v24.2h-3.8V150.2z"/>
		<path class="st2" d="M72.5,156.8L72.5,156.8l-0.1,17.5H69v-24.2h4.8l3.8,14.5h0.1v-14.5h3.4v24.2h-3.9L72.5,156.8z"/>
		<path class="st2" d="M82.7,150.2h11.8v3.5h-4v20.8h-3.8v-20.8h-4V150.2z"/>
		<path class="st2" d="M104.1,174.4c-0.2-0.6-0.3-1-0.3-3v-3.8c0-2.2-0.8-3.1-2.5-3.1H100v9.9h-3.8v-24.2h5.7c3.9,0,5.6,1.8,5.6,5.6
			v1.9c0,2.5-0.8,4.1-2.5,4.9v0.1c1.9,0.8,2.5,2.6,2.5,5.1v3.7c0,1.2,0,2,0.4,2.9H104.1z M100,153.6v7.4h1.5c1.4,0,2.3-0.6,2.3-2.6
			v-2.4c0-1.7-0.6-2.5-1.9-2.5H100z"/>
		<path class="st2" d="M109.7,156c0-3.9,2-6.1,5.8-6.1c3.7,0,5.8,2.2,5.8,6.1v12.6c0,3.9-2,6.1-5.8,6.1c-3.7,0-5.8-2.2-5.8-6.1V156z
			 M113.6,168.8c0,1.7,0.8,2.4,2,2.4c1.2,0,2-0.7,2-2.4v-13.1c0-1.7-0.8-2.4-2-2.4c-1.2,0-2,0.7-2,2.4V168.8z"/>
		<path class="st2" d="M123.8,150.2h6c3.8,0,5.7,2.1,5.7,6v12.3c0,3.9-1.9,6-5.7,6h-6V150.2z M127.6,153.6v17.3h2.1
			c1.2,0,1.9-0.6,1.9-2.4V156c0-1.7-0.7-2.4-1.9-2.4H127.6z"/>
		<path class="st2" d="M141.5,150.2v18.7c0,1.7,0.8,2.4,2,2.4c1.2,0,2-0.6,2-2.4v-18.7h3.6v18.4c0,3.9-1.9,6.1-5.7,6.1
			s-5.7-2.2-5.7-6.1v-18.4H141.5z"/>
		<path class="st2" d="M162.7,165.3v3.2c0,3.9-1.9,6.1-5.7,6.1c-3.7,0-5.7-2.2-5.7-6.1V156c0-3.9,1.9-6.1,5.7-6.1
			c3.7,0,5.7,2.2,5.7,6.1v2.4h-3.6v-2.6c0-1.7-0.8-2.4-2-2.4c-1.2,0-2,0.7-2,2.4v13.1c0,1.7,0.8,2.4,2,2.4c1.2,0,2-0.6,2-2.4v-3.5
			H162.7z"/>
		<path class="st2" d="M163.9,150.2h11.8v3.5h-4v20.8h-3.8v-20.8h-4V150.2z"/>
		<path class="st2" d="M177,156c0-3.9,2-6.1,5.8-6.1c3.7,0,5.8,2.2,5.8,6.1v12.6c0,3.9-2,6.1-5.8,6.1c-3.7,0-5.8-2.2-5.8-6.1V156z
			 M180.8,168.8c0,1.7,0.8,2.4,2,2.4c1.2,0,2-0.7,2-2.4v-13.1c0-1.7-0.8-2.4-2-2.4c-1.2,0-2,0.7-2,2.4V168.8z"/>
		<path class="st2" d="M199,174.4c-0.2-0.6-0.3-1-0.3-3v-3.8c0-2.2-0.8-3.1-2.5-3.1h-1.3v9.9H191v-24.2h5.7c3.9,0,5.6,1.8,5.6,5.6
			v1.9c0,2.5-0.8,4.1-2.5,4.9v0.1c1.9,0.8,2.5,2.6,2.5,5.1v3.7c0,1.2,0,2,0.4,2.9H199z M194.8,153.6v7.4h1.5c1.4,0,2.3-0.6,2.3-2.6
			v-2.4c0-1.7-0.6-2.5-1.9-2.5H194.8z"/>
		<path class="st2" d="M204.9,150.2h3.8v24.2h-3.8V150.2z"/>
		<path class="st2" d="M211.2,156c0-3.9,2-6.1,5.8-6.1c3.7,0,5.8,2.2,5.8,6.1v12.6c0,3.9-2,6.1-5.8,6.1c-3.7,0-5.8-2.2-5.8-6.1V156z
			 M215,168.8c0,1.7,0.8,2.4,2,2.4c1.2,0,2-0.7,2-2.4v-13.1c0-1.7-0.8-2.4-2-2.4c-1.2,0-2,0.7-2,2.4V168.8z"/>
	</g>
</g>
</svg>
