<?xml version="1.0" encoding="utf-8"?>
<!-- Generator: Adobe Illustrator 22.0.1, SVG Export Plug-In . SVG Version: 6.00 Build 0)  -->
<svg version="1.0" id="Capa_1" xmlns="http://www.w3.org/2000/svg" xmlns:xlink="http://www.w3.org/1999/xlink" x="0px" y="0px"
	 viewBox="0 0 303.6 289.6" style="enable-background:new 0 0 303.6 289.6;" xml:space="preserve">
<style type="text/css">
	.st0{fill:url(#SVGID_1_);}
	.st1{fill:#606060;}
</style>
<title>proyecto3</title>
<linearGradient id="SVGID_1_" gradientUnits="userSpaceOnUse" x1="-297.13" y1="144.0167" x2="303.59" y2="144.0167" gradientTransform="matrix(1 0 0 -1 0 288.7717)">
	<stop  offset="0" style="stop-color:#13226F"/>
	<stop  offset="0.26" style="stop-color:#13226F"/>
	<stop  offset="0.99" style="stop-color:#B21E1C"/>
	<stop  offset="1" style="stop-color:#B21E1C"/>
</linearGradient>
<path class="st0" d="M301.4,136.7L227.2,8.1c-2.9-5-8.2-8.1-14-8.1H64.7c-5.8,0-11.1,3.1-14,8.1L20.8,59.9c-4.1,7.1-2.1,16.2,4.6,21
	l0.3,0.2c7.2,5.1,17.2,3.5,22.3-3.7c0.3-0.4,0.6-0.8,0.8-1.3l20.6-35.7c2.9-5,8.2-8.1,14-8.1h111.2c5.8,0,11.1,3.1,14,8.1l55.6,96.3
	c2.9,5,2.9,11.2,0,16.2l-55.6,96.3c-2.9,5-8.2,8.1-14,8.1H83.3c-5.8,0-11.1-3.1-14-8.1l-39.2-67.9c-4.4-7.7-14.3-10.4-22.1-5.9
	c-2.5,1.4-4.5,3.5-5.9,5.9l0,0c-2.9,5-2.9,11.1,0,16.1l48.5,84c2.9,5,8.2,8.1,14,8.1h148.5c5.8,0,11.1-3.1,14-8.1l74.2-128.6
	C304.3,147.8,304.3,141.7,301.4,136.7z"/>
<g>
	<g>
		<path class="st1" d="M102.2,121.9v3.1c0,3.9-1.9,6-5.7,6h-1.8v9.1h-3.8V116h5.6C100.3,116,102.2,118.1,102.2,121.9z M94.7,119.4
			v8.2h1.8c1.2,0,1.9-0.6,1.9-2.3v-3.6c0-1.7-0.7-2.3-1.9-2.3H94.7z"/>
		<path class="st1" d="M111.9,140.2c-0.2-0.6-0.3-1-0.3-3v-3.8c0-2.2-0.8-3.1-2.5-3.1h-1.3v9.9h-3.8V116h5.7c3.9,0,5.6,1.8,5.6,5.6
			v1.9c0,2.5-0.8,4.1-2.5,4.9v0.1c1.9,0.8,2.5,2.6,2.5,5.1v3.7c0,1.2,0,2,0.4,2.9H111.9z M107.7,119.4v7.4h1.5
			c1.4,0,2.3-0.6,2.3-2.6v-2.4c0-1.7-0.6-2.5-1.9-2.5H107.7z"/>
		<path class="st1" d="M117.9,116h3.8v24.2h-3.8V116z"/>
		<path class="st1" d="M132.5,133.2L132.5,133.2l2.6-17.2h5.3v24.2h-3.6v-17.4h-0.1l-2.6,17.4h-3.6l-2.8-17.1h-0.1v17.1h-3.3V116
			h5.3L132.5,133.2z"/>
		<path class="st1" d="M147,126.2h5.2v3.5H147v7.1h6.6v3.5h-10.4V116h10.4v3.5H147V126.2z"/>
		<path class="st1" d="M163.8,140.2c-0.2-0.6-0.3-1-0.3-3v-3.8c0-2.2-0.8-3.1-2.5-3.1h-1.3v9.9h-3.8V116h5.7c3.9,0,5.6,1.8,5.6,5.6
			v1.9c0,2.5-0.8,4.1-2.5,4.9v0.1c1.9,0.8,2.5,2.6,2.5,5.1v3.7c0,1.2,0,2,0.4,2.9H163.8z M159.7,119.4v7.4h1.5
			c1.4,0,2.3-0.6,2.3-2.6v-2.4c0-1.7-0.6-2.5-1.9-2.5H159.7z"/>
		<path class="st1" d="M169.5,121.8c0-3.9,2-6.1,5.8-6.1c3.7,0,5.8,2.2,5.8,6.1v12.6c0,3.9-2,6.1-5.8,6.1c-3.7,0-5.8-2.2-5.8-6.1
			V121.8z M173.3,134.6c0,1.7,0.8,2.4,2,2.4c1.2,0,2-0.7,2-2.4v-13.1c0-1.7-0.8-2.4-2-2.4c-1.2,0-2,0.7-2,2.4V134.6z"/>
		<path class="st1" d="M188.6,115.7c3.7,0,5.6,2.2,5.6,6.1v0.8h-3.6v-1c0-1.7-0.7-2.4-1.9-2.4c-1.2,0-1.9,0.7-1.9,2.4
			c0,1.8,0.8,3.1,3.3,5.3c3.2,2.8,4.2,4.8,4.2,7.6c0,3.9-1.9,6.1-5.7,6.1s-5.7-2.2-5.7-6.1v-1.5h3.6v1.7c0,1.7,0.8,2.4,2,2.4
			c1.2,0,2-0.6,2-2.4c0-1.8-0.8-3.1-3.3-5.3c-3.2-2.8-4.2-4.8-4.2-7.6C183,117.9,184.9,115.7,188.6,115.7z"/>
		<path class="st1" d="M111.5,175.2h-3.8l-0.7-4.4h-4.7l-0.7,4.4h-3.5l3.9-24.2h5.6L111.5,175.2z M102.8,167.5h3.7l-1.8-12.3h-0.1
			L102.8,167.5z"/>
		<path class="st1" d="M116.9,151v18.7c0,1.7,0.8,2.4,2,2.4c1.2,0,2-0.6,2-2.4V151h3.6v18.4c0,3.9-1.9,6.1-5.7,6.1s-5.7-2.2-5.7-6.1
			V151H116.9z"/>
		<path class="st1" d="M139.8,151l-4,11.8l4.3,12.5h-4l-3.1-9.6h-0.1l-3.1,9.6h-3.6l4.3-12.5l-4-11.8h3.9l2.8,8.9h0.1l2.9-8.9H139.8
			z"/>
		<path class="st1" d="M142,151h3.8v24.2H142V151z"/>
		<path class="st1" d="M148.5,151h3.8v20.8h6.3v3.5h-10.1V151z"/>
		<path class="st1" d="M160.3,151h3.8v24.2h-3.8V151z"/>
		<path class="st1" d="M166.5,156.8c0-3.9,2-6.1,5.8-6.1c3.7,0,5.8,2.2,5.8,6.1v12.6c0,3.9-2,6.1-5.8,6.1c-3.7,0-5.8-2.2-5.8-6.1
			V156.8z M170.3,169.6c0,1.7,0.8,2.4,2,2.4c1.2,0,2-0.7,2-2.4v-13.1c0-1.7-0.8-2.4-2-2.4c-1.2,0-2,0.7-2,2.4V169.6z"/>
		<path class="st1" d="M185.7,150.7c3.7,0,5.6,2.2,5.6,6.1v0.8h-3.6v-1c0-1.7-0.7-2.4-1.9-2.4c-1.2,0-1.9,0.7-1.9,2.4
			c0,1.8,0.8,3.1,3.3,5.3c3.2,2.8,4.2,4.8,4.2,7.6c0,3.9-1.9,6.1-5.7,6.1s-5.7-2.2-5.7-6.1v-1.5h3.6v1.7c0,1.7,0.8,2.4,2,2.4
			c1.2,0,2-0.6,2-2.4c0-1.8-0.8-3.1-3.3-5.3c-3.2-2.8-4.2-4.8-4.2-7.6C180.1,152.9,182,150.7,185.7,150.7z"/>
	</g>
</g>
</svg>
