<?xml version="1.0" encoding="utf-8"?>
<!-- Generator: Adobe Illustrator 22.0.1, SVG Export Plug-In . SVG Version: 6.00 Build 0)  -->
<svg version="1.0" id="Capa_1" xmlns="http://www.w3.org/2000/svg" xmlns:xlink="http://www.w3.org/1999/xlink" x="0px" y="0px"
	 viewBox="0 0 303.6 289.6" style="enable-background:new 0 0 303.6 289.6;" xml:space="preserve">
<style type="text/css">
	.st0{fill:url(#SVGID_1_);}
	.st1{fill:#606060;}
</style>
<title>proyecto3</title>
<linearGradient id="SVGID_1_" gradientUnits="userSpaceOnUse" x1="-297.13" y1="144.0167" x2="303.59" y2="144.0167" gradientTransform="matrix(1 0 0 -1 0 288.7717)">
	<stop  offset="0" style="stop-color:#13226F"/>
	<stop  offset="0.26" style="stop-color:#13226F"/>
	<stop  offset="0.99" style="stop-color:#B21E1C"/>
	<stop  offset="1" style="stop-color:#B21E1C"/>
</linearGradient>
<path class="st0" d="M301.4,136.7L227.2,8.1c-2.9-5-8.2-8.1-14-8.1H64.7c-5.8,0-11.1,3.1-14,8.1L20.8,59.9c-4.1,7.1-2.1,16.2,4.6,21
	l0.3,0.2c7.2,5.1,17.2,3.5,22.3-3.7c0.3-0.4,0.6-0.8,0.8-1.3l20.6-35.7c2.9-5,8.2-8.1,14-8.1h111.2c5.8,0,11.1,3.1,14,8.1l55.6,96.3
	c2.9,5,2.9,11.2,0,16.2l-55.6,96.3c-2.9,5-8.2,8.1-14,8.1H83.3c-5.8,0-11.1-3.1-14-8.1l-39.2-67.9c-4.4-7.7-14.3-10.4-22.1-5.9
	c-2.5,1.4-4.5,3.5-5.9,5.9l0,0c-2.9,5-2.9,11.1,0,16.1l48.5,84c2.9,5,8.2,8.1,14,8.1h148.5c5.8,0,11.1-3.1,14-8.1l74.2-128.6
	C304.3,147.8,304.3,141.7,301.4,136.7z"/>
<g>
	<g>
		<path class="st1" d="M92,79.9c3.7,0,5.6,2.2,5.6,6.1v0.8H94v-1c0-1.7-0.7-2.4-1.9-2.4c-1.2,0-1.9,0.7-1.9,2.4
			c0,1.8,0.8,3.1,3.3,5.3c3.2,2.8,4.2,4.8,4.2,7.6c0,3.9-1.9,6.1-5.7,6.1s-5.7-2.2-5.7-6.1v-1.5h3.6v1.7c0,1.7,0.8,2.4,2,2.4
			c1.2,0,2-0.6,2-2.4c0-1.8-0.8-3.1-3.3-5.3c-3.2-2.8-4.2-4.8-4.2-7.6C86.4,82.1,88.3,79.9,92,79.9z"/>
		<path class="st1" d="M99.8,80.1h3.8v24.2h-3.8V80.1z"/>
		<path class="st1" d="M111.5,79.9c3.7,0,5.6,2.2,5.6,6.1v0.8h-3.6v-1c0-1.7-0.7-2.4-1.9-2.4c-1.2,0-1.9,0.7-1.9,2.4
			c0,1.8,0.8,3.1,3.3,5.3c3.2,2.8,4.2,4.8,4.2,7.6c0,3.9-1.9,6.1-5.7,6.1s-5.7-2.2-5.7-6.1v-1.5h3.6v1.7c0,1.7,0.8,2.4,2,2.4
			c1.2,0,2-0.6,2-2.4c0-1.8-0.8-3.1-3.3-5.3c-3.2-2.8-4.2-4.8-4.2-7.6C105.9,82.1,107.8,79.9,111.5,79.9z"/>
		<path class="st1" d="M118.2,80.1H130v3.5h-4v20.8h-3.8V83.6h-4V80.1z"/>
		<path class="st1" d="M135.4,90.4h5.2v3.5h-5.2v7.1h6.6v3.5h-10.4V80.1H142v3.5h-6.6V90.4z"/>
		<path class="st1" d="M152.4,97.3L152.4,97.3l2.6-17.2h5.3v24.2h-3.6V87h-0.1l-2.6,17.4h-3.6l-2.8-17.1h-0.1v17.1h-3.3V80.1h5.3
			L152.4,97.3z"/>
		<path class="st1" d="M175.4,104.4h-3.8l-0.7-4.4h-4.7l-0.7,4.4h-3.5l3.9-24.2h5.6L175.4,104.4z M166.7,96.7h3.7l-1.8-12.3h-0.1
			L166.7,96.7z"/>
		<path class="st1" d="M182.5,80.1h6c3.8,0,5.7,2.1,5.7,6v12.3c0,3.9-1.9,6-5.7,6h-6V80.1z M186.4,83.6v17.3h2.1
			c1.2,0,1.9-0.6,1.9-2.4V86c0-1.7-0.7-2.4-1.9-2.4H186.4z"/>
		<path class="st1" d="M200.5,90.4h5.2v3.5h-5.2v7.1h6.6v3.5h-10.4V80.1H207v3.5h-6.6V90.4z"/>
		<path class="st1" d="M70.6,121.1v3.1c0,3.9-1.9,6-5.7,6h-1.8v9.1h-3.8v-24.2H65C68.8,115.1,70.6,117.3,70.6,121.1z M63.2,118.6
			v8.2H65c1.2,0,1.9-0.6,1.9-2.3v-3.6c0-1.7-0.7-2.3-1.9-2.3H63.2z"/>
		<path class="st1" d="M76.2,125.4h5.2v3.5h-5.2v7.1h6.6v3.5H72.4v-24.2h10.4v3.5h-6.6V125.4z"/>
		<path class="st1" d="M93.1,139.4c-0.2-0.6-0.3-1-0.3-3v-3.8c0-2.2-0.8-3.1-2.5-3.1h-1.3v9.9h-3.8v-24.2h5.7c3.9,0,5.6,1.8,5.6,5.6
			v1.9c0,2.5-0.8,4.1-2.5,4.9v0.1c1.9,0.8,2.5,2.6,2.5,5.1v3.7c0,1.2,0,2,0.4,2.9H93.1z M88.9,118.6v7.4h1.5c1.4,0,2.3-0.6,2.3-2.6
			v-2.4c0-1.7-0.6-2.5-1.9-2.5H88.9z"/>
		<path class="st1" d="M104.2,114.9c3.7,0,5.6,2.2,5.6,6.1v0.8h-3.6v-1c0-1.7-0.7-2.4-1.9-2.4c-1.2,0-1.9,0.7-1.9,2.4
			c0,1.8,0.8,3.1,3.3,5.3c3.2,2.8,4.2,4.8,4.2,7.6c0,3.9-1.9,6.1-5.7,6.1s-5.7-2.2-5.7-6.1v-1.5h3.6v1.7c0,1.7,0.8,2.4,2,2.4
			c1.2,0,2-0.6,2-2.4c0-1.8-0.8-3.1-3.3-5.3c-3.2-2.8-4.2-4.8-4.2-7.6C98.6,117.1,100.5,114.9,104.2,114.9z"/>
		<path class="st1" d="M120,132.3L120,132.3l2.6-17.2h5.3v24.2h-3.6V122h-0.1l-2.6,17.4h-3.6l-2.8-17.1h-0.1v17.1H112v-24.2h5.3
			L120,132.3z"/>
		<path class="st1" d="M130.7,115.1h3.8v24.2h-3.8V115.1z"/>
		<path class="st1" d="M142.4,114.9c3.7,0,5.6,2.2,5.6,6.1v0.8h-3.6v-1c0-1.7-0.7-2.4-1.9-2.4c-1.2,0-1.9,0.7-1.9,2.4
			c0,1.8,0.8,3.1,3.3,5.3c3.2,2.8,4.2,4.8,4.2,7.6c0,3.9-1.9,6.1-5.7,6.1s-5.7-2.2-5.7-6.1v-1.5h3.6v1.7c0,1.7,0.8,2.4,2,2.4
			c1.2,0,2-0.6,2-2.4c0-1.8-0.8-3.1-3.3-5.3c-3.2-2.8-4.2-4.8-4.2-7.6C136.8,117.1,138.7,114.9,142.4,114.9z"/>
		<path class="st1" d="M149.9,121c0-3.9,2-6.1,5.8-6.1c3.7,0,5.8,2.2,5.8,6.1v12.6c0,3.9-2,6.1-5.8,6.1c-3.7,0-5.8-2.2-5.8-6.1V121z
			 M153.7,133.8c0,1.7,0.8,2.4,2,2.4c1.2,0,2-0.7,2-2.4v-13.1c0-1.7-0.8-2.4-2-2.4c-1.2,0-2,0.7-2,2.4V133.8z"/>
		<path class="st1" d="M169,114.9c3.7,0,5.6,2.2,5.6,6.1v0.8h-3.6v-1c0-1.7-0.7-2.4-1.9-2.4c-1.2,0-1.9,0.7-1.9,2.4
			c0,1.8,0.8,3.1,3.3,5.3c3.2,2.8,4.2,4.8,4.2,7.6c0,3.9-1.9,6.1-5.7,6.1s-5.7-2.2-5.7-6.1v-1.5h3.6v1.7c0,1.7,0.8,2.4,2,2.4
			c1.2,0,2-0.6,2-2.4c0-1.8-0.8-3.1-3.3-5.3c-3.2-2.8-4.2-4.8-4.2-7.6C163.4,117.1,165.3,114.9,169,114.9z"/>
		<path class="st1" d="M193.5,121.1v3.1c0,3.9-1.9,6-5.7,6H186v9.1h-3.8v-24.2h5.6C191.6,115.1,193.5,117.3,193.5,121.1z M186,118.6
			v8.2h1.8c1.2,0,1.9-0.6,1.9-2.3v-3.6c0-1.7-0.7-2.3-1.9-2.3H186z"/>
		<path class="st1" d="M207.2,139.4h-3.8l-0.7-4.4H198l-0.7,4.4h-3.5l3.9-24.2h5.6L207.2,139.4z M198.5,131.7h3.7l-1.8-12.3h-0.1
			L198.5,131.7z"/>
		<path class="st1" d="M216.9,139.4c-0.2-0.6-0.3-1-0.3-3v-3.8c0-2.2-0.8-3.1-2.5-3.1h-1.3v9.9h-3.8v-24.2h5.7
			c3.9,0,5.6,1.8,5.6,5.6v1.9c0,2.5-0.8,4.1-2.5,4.9v0.1c1.9,0.8,2.5,2.6,2.5,5.1v3.7c0,1.2,0,2,0.4,2.9H216.9z M212.7,118.6v7.4
			h1.5c1.4,0,2.3-0.6,2.3-2.6v-2.4c0-1.7-0.6-2.5-1.9-2.5H212.7z"/>
		<path class="st1" d="M235.1,139.4h-3.8l-0.7-4.4H226l-0.7,4.4h-3.5l3.9-24.2h5.6L235.1,139.4z M226.5,131.7h3.7l-1.8-12.3h-0.1
			L226.5,131.7z"/>
		<path class="st1" d="M71.4,150.1h11.8v3.5h-4v20.8h-3.8v-20.8h-4V150.1z"/>
		<path class="st1" d="M92.8,174.4c-0.2-0.6-0.3-1-0.3-3v-3.8c0-2.2-0.8-3.1-2.5-3.1h-1.3v9.9h-3.8v-24.2h5.7c3.9,0,5.6,1.8,5.6,5.6
			v1.9c0,2.5-0.8,4.1-2.5,4.9v0.1c1.9,0.8,2.5,2.6,2.5,5.1v3.7c0,1.2,0,2,0.4,2.9H92.8z M88.7,153.6v7.4h1.5c1.4,0,2.3-0.6,2.3-2.6
			v-2.4c0-1.7-0.6-2.5-1.9-2.5H88.7z"/>
		<path class="st1" d="M111.1,174.4h-3.8l-0.7-4.4h-4.7l-0.7,4.4h-3.5l3.9-24.2h5.6L111.1,174.4z M102.4,166.7h3.7l-1.8-12.3h-0.1
			L102.4,166.7z"/>
		<path class="st1" d="M124.3,155.7v0.9c0,2.5-0.8,4-2.5,4.8v0.1c2,0.8,2.8,2.6,2.8,5.2v2c0,3.7-2,5.7-5.8,5.7h-6v-24.2h5.7
			C122.6,150.1,124.3,152,124.3,155.7z M116.7,153.6v6.4h1.5c1.4,0,2.3-0.6,2.3-2.6v-1.3c0-1.7-0.6-2.5-1.9-2.5H116.7z M116.7,163.5
			v7.4h2.2c1.3,0,2-0.6,2-2.4v-2.1c0-2.2-0.7-2.9-2.5-2.9H116.7z"/>
		<path class="st1" d="M139.2,174.4h-3.8l-0.7-4.4h-4.7l-0.7,4.4h-3.5l3.9-24.2h5.6L139.2,174.4z M130.6,166.7h3.7l-1.8-12.3h-0.1
			L130.6,166.7z"/>
		<path class="st1" d="M140,170.9c0.4,0,0.9,0,1.3,0c1.2,0,2.2-0.5,2.2-2.3v-18.5h3.8v18.2c0,4.8-2.6,6.1-5.5,6.1
			c-0.7,0-1.2,0-1.8-0.1V170.9z"/>
		<path class="st1" d="M149.5,156c0-3.9,2-6.1,5.8-6.1c3.7,0,5.8,2.2,5.8,6.1v12.6c0,3.9-2,6.1-5.8,6.1c-3.7,0-5.8-2.2-5.8-6.1V156z
			 M153.4,168.8c0,1.7,0.8,2.4,2,2.4c1.2,0,2-0.7,2-2.4v-13.1c0-1.7-0.8-2.4-2-2.4c-1.2,0-2,0.7-2,2.4V168.8z"/>
		<path class="st1" d="M168.7,149.9c3.7,0,5.6,2.2,5.6,6.1v0.8h-3.6v-1c0-1.7-0.7-2.4-1.9-2.4c-1.2,0-1.9,0.7-1.9,2.4
			c0,1.8,0.8,3.1,3.3,5.3c3.2,2.8,4.2,4.8,4.2,7.6c0,3.9-1.9,6.1-5.7,6.1s-5.7-2.2-5.7-6.1v-1.5h3.6v1.7c0,1.7,0.8,2.4,2,2.4
			c1.2,0,2-0.6,2-2.4c0-1.8-0.8-3.1-3.3-5.3c-3.2-2.8-4.2-4.8-4.2-7.6C163.1,152.1,165,149.9,168.7,149.9z"/>
		<path class="st1" d="M192.9,165.3v3.2c0,3.9-1.9,6.1-5.7,6.1c-3.7,0-5.7-2.2-5.7-6.1V156c0-3.9,1.9-6.1,5.7-6.1
			c3.7,0,5.7,2.2,5.7,6.1v2.4h-3.6v-2.6c0-1.7-0.8-2.4-2-2.4c-1.2,0-2,0.7-2,2.4v13.1c0,1.7,0.8,2.4,2,2.4c1.2,0,2-0.6,2-2.4v-3.5
			H192.9z"/>
		<path class="st1" d="M194.9,156c0-3.9,2-6.1,5.8-6.1c3.7,0,5.8,2.2,5.8,6.1v12.6c0,3.9-2,6.1-5.8,6.1c-3.7,0-5.8-2.2-5.8-6.1V156z
			 M198.7,168.8c0,1.7,0.8,2.4,2,2.4c1.2,0,2-0.7,2-2.4v-13.1c0-1.7-0.8-2.4-2-2.4c-1.2,0-2,0.7-2,2.4V168.8z"/>
		<path class="st1" d="M212.4,156.8L212.4,156.8l-0.1,17.5h-3.4v-24.2h4.8l3.8,14.5h0.1v-14.5h3.4v24.2h-3.9L212.4,156.8z"/>
		<path class="st1" d="M122.1,209.4c-0.2-0.6-0.3-1-0.3-3v-3.8c0-2.2-0.8-3.1-2.5-3.1h-1.3v9.9h-3.8v-24.2h5.7
			c3.9,0,5.6,1.8,5.6,5.6v1.9c0,2.5-0.8,4.1-2.5,4.9v0.1c1.9,0.8,2.5,2.6,2.5,5.1v3.7c0,1.2,0,2,0.4,2.9H122.1z M117.9,188.6v7.4
			h1.5c1.4,0,2.3-0.6,2.3-2.6v-2.4c0-1.7-0.6-2.5-1.9-2.5H117.9z"/>
		<path class="st1" d="M128,185.1h3.8v24.2H128V185.1z"/>
		<path class="st1" d="M138.4,195.4h5.2v3.5h-5.2v7.1h6.6v3.5h-10.4v-24.2H145v3.5h-6.6V195.4z"/>
		<path class="st1" d="M152.5,184.9c3.7,0,5.6,2.2,5.6,6.1v0.8h-3.6v-1c0-1.7-0.7-2.4-1.9-2.4c-1.2,0-1.9,0.7-1.9,2.4
			c0,1.8,0.8,3.1,3.3,5.3c3.2,2.8,4.2,4.8,4.2,7.6c0,3.9-1.9,6.1-5.7,6.1s-5.7-2.2-5.7-6.1v-1.5h3.6v1.7c0,1.7,0.8,2.4,2,2.4
			c1.2,0,2-0.6,2-2.4c0-1.8-0.8-3.1-3.3-5.3c-3.2-2.8-4.2-4.8-4.2-7.6C146.9,187.1,148.8,184.9,152.5,184.9z"/>
		<path class="st1" d="M166,195.9h5.3v7.7c0,3.9-1.9,6.1-5.7,6.1c-3.7,0-5.7-2.2-5.7-6.1V191c0-3.9,1.9-6.1,5.7-6.1
			c3.7,0,5.7,2.2,5.7,6.1v2.4h-3.6v-2.6c0-1.7-0.8-2.4-2-2.4c-1.2,0-2,0.7-2,2.4v13.1c0,1.7,0.8,2.4,2,2.4c1.2,0,2-0.6,2-2.4v-4.5
			H166V195.9z"/>
		<path class="st1" d="M173.5,191c0-3.9,2-6.1,5.8-6.1c3.7,0,5.8,2.2,5.8,6.1v12.6c0,3.9-2,6.1-5.8,6.1c-3.7,0-5.8-2.2-5.8-6.1V191z
			 M177.3,203.8c0,1.7,0.8,2.4,2,2.4c1.2,0,2-0.7,2-2.4v-13.1c0-1.7-0.8-2.4-2-2.4c-1.2,0-2,0.7-2,2.4V203.8z"/>
	</g>
</g>
</svg>
