<?xml version="1.0" encoding="utf-8"?>
<!-- Generator: Adobe Illustrator 22.0.1, SVG Export Plug-In . SVG Version: 6.00 Build 0)  -->
<svg version="1.0" id="Capa_1" xmlns="http://www.w3.org/2000/svg" xmlns:xlink="http://www.w3.org/1999/xlink" x="0px" y="0px"
	 viewBox="0 0 326.9 289.6" style="enable-background:new 0 0 326.9 289.6;" xml:space="preserve">
<style type="text/css">
	.st0{fill:url(#SVGID_1_);}
	.st1{fill:url(#SVGID_2_);}
	.st2{fill:#606060;}
</style>
<title>proyecto2</title>
<linearGradient id="SVGID_1_" gradientUnits="userSpaceOnUse" x1="1.101442e-03" y1="99.8141" x2="591.6311" y2="99.8141" gradientTransform="matrix(1 0 0 -1 0 288.7717)">
	<stop  offset="0" style="stop-color:#13226F"/>
	<stop  offset="0.26" style="stop-color:#13226F"/>
	<stop  offset="0.99" style="stop-color:#B21E1C"/>
	<stop  offset="1" style="stop-color:#B21E1C"/>
</linearGradient>
<path class="st0" d="M320.1,91.4c-7.2-5.2-17.2-3.6-22.3,3.6c-0.3,0.5-0.6,0.9-0.9,1.4l-88.2,152.8c-2.9,5-8.2,8-14,8H83.4
	c-5.8,0-11.1-3.1-14-8.1l-39.3-68c-4.5-7.7-14.3-10.4-22.1-5.9c-2.5,1.4-4.5,3.5-5.9,5.9l0,0c-2.9,5-2.9,11.1,0,16.1l48.6,84.2
	c2.9,5,8.2,8.1,14,8.1h148.5c5.8,0,11.1-3.1,14-8.1c66.5-115.1,71.9-124.6,97.5-168.9c4.1-7.1,2.2-16.1-4.5-20.9L320.1,91.4z
	 M208.6,249.2L208.6,249.2l36.1-62.4C236.4,201,224.7,221.3,208.6,249.2z M252.2,173.7c-0.1,0.1-0.2,0.3-0.3,0.4L252.2,173.7z
	 M245.8,184.8l-0.8,1.4C245.2,185.8,245.5,185.3,245.8,184.8L245.8,184.8z"/>
<linearGradient id="SVGID_2_" gradientUnits="userSpaceOnUse" x1="-308.18" y1="230.4959" x2="280.29" y2="230.4959" gradientTransform="matrix(1 0 0 -1 0 288.7717)">
	<stop  offset="0" style="stop-color:#13226F"/>
	<stop  offset="0.26" style="stop-color:#13226F"/>
	<stop  offset="0.99" style="stop-color:#B21E1C"/>
	<stop  offset="1" style="stop-color:#B21E1C"/>
</linearGradient>
<path class="st1" d="M278.1,92.3L229.5,8.1c-2.9-5-8.2-8.1-14-8.1H67c-5.8,0-11.1,3.1-14,8.1L18.7,67.5c-4.2,7.4-2,16.7,5.1,21.4
	l0.3,0.2c7.4,4.8,17.3,2.8,22.1-4.6c0.2-0.2,0.3-0.5,0.5-0.7l25-43.3c2.9-5,8.2-8.1,14-8.1h111.2c5.8,0,11.1,3.1,14,8.1l39.3,68.1
	c4.5,7.7,14.3,10.4,22.1,5.9c2.5-1.4,4.5-3.5,5.9-5.9l0,0C281.1,103.4,281,97.3,278.1,92.3z"/>
<g>
	<g>
		<path class="st2" d="M51.8,146.6L51.8,146.6l2.6-17.2h5.3v24.2h-3.6v-17.4H56l-2.6,17.4h-3.6l-2.8-17.1h-0.1v17.1h-3.3v-24.2H49
			L51.8,146.6z"/>
		<path class="st2" d="M74.8,153.6H71l-0.7-4.4h-4.7l-0.7,4.4h-3.5l3.9-24.2h5.6L74.8,153.6z M66.1,145.9h3.7L68,133.7h-0.1
			L66.1,145.9z"/>
		<path class="st2" d="M80,136L80,136L80,153.6h-3.4v-24.2h4.8l3.8,14.5h0.1v-14.5h3.4v24.2h-3.9L80,136z"/>
		<path class="st2" d="M91.3,129.4h3.8v24.2h-3.8V129.4z"/>
		<path class="st2" d="M97.6,135.2c0-3.9,2-6.1,5.8-6.1c3.7,0,5.8,2.2,5.8,6.1v12.6c0,3.9-2,6.1-5.8,6.1c-3.7,0-5.8-2.2-5.8-6.1
			V135.2z M101.4,148c0,1.7,0.8,2.4,2,2.4c1.2,0,2-0.7,2-2.4v-13.1c0-1.7-0.8-2.4-2-2.4c-1.2,0-2,0.7-2,2.4V148z"/>
		<path class="st2" d="M123,134.9v0.9c0,2.5-0.8,4-2.5,4.8v0.1c2,0.8,2.8,2.6,2.8,5.2v2c0,3.7-2,5.7-5.8,5.7h-6v-24.2h5.7
			C121.3,129.4,123,131.2,123,134.9z M115.4,132.8v6.4h1.5c1.4,0,2.3-0.6,2.3-2.6v-1.3c0-1.7-0.6-2.5-1.9-2.5H115.4z M115.4,142.7
			v7.4h2.2c1.3,0,2-0.6,2-2.4v-2.1c0-2.2-0.7-2.9-2.5-2.9H115.4z"/>
		<path class="st2" d="M133.6,153.6c-0.2-0.6-0.3-1-0.3-3v-3.8c0-2.2-0.8-3.1-2.5-3.1h-1.3v9.9h-3.8v-24.2h5.7
			c3.9,0,5.6,1.8,5.6,5.6v1.9c0,2.5-0.8,4.1-2.5,4.9v0.1c1.9,0.8,2.5,2.6,2.5,5.1v3.7c0,1.2,0,2,0.4,2.9H133.6z M129.5,132.8v7.4
			h1.5c1.4,0,2.3-0.6,2.3-2.6v-2.4c0-1.7-0.6-2.5-1.9-2.5H129.5z"/>
		<path class="st2" d="M151.9,153.6h-3.8l-0.7-4.4h-4.7l-0.7,4.4h-3.5l3.9-24.2h5.6L151.9,153.6z M143.2,145.9h3.7l-1.8-12.3H145
			L143.2,145.9z"/>
		<path class="st2" d="M158.8,129.1c3.7,0,5.6,2.2,5.6,6.1v0.8h-3.6v-1c0-1.7-0.7-2.4-1.9-2.4c-1.2,0-1.9,0.7-1.9,2.4
			c0,1.8,0.8,3.1,3.3,5.3c3.2,2.8,4.2,4.8,4.2,7.6c0,3.9-1.9,6.1-5.7,6.1s-5.7-2.2-5.7-6.1v-1.5h3.6v1.7c0,1.7,0.8,2.4,2,2.4
			c1.2,0,2-0.6,2-2.4c0-1.8-0.8-3.1-3.3-5.3c-3.2-2.8-4.2-4.8-4.2-7.6C153.2,131.3,155.1,129.1,158.8,129.1z"/>
		<path class="st2" d="M175.8,139.6h5.2v3.5h-5.2v7.1h6.6v3.5H172v-24.2h10.4v3.5h-6.6V139.6z"/>
		<path class="st2" d="M190.1,129.4h3.8v24.2h-3.8V129.4z"/>
		<path class="st2" d="M207.2,129.4v3.4l-7.2,17.4h7.2v3.5h-11.1v-3.4l7.2-17.4h-6.9v-3.5H207.2z"/>
		<path class="st2" d="M221.8,153.6h-3.8l-0.7-4.4h-4.7l-0.7,4.4h-3.5l3.9-24.2h5.6L221.8,153.6z M213.1,145.9h3.7l-1.8-12.3h-0.1
			L213.1,145.9z"/>
		<path class="st2" d="M222.5,150.1c0.4,0,0.9,0,1.3,0c1.2,0,2.2-0.5,2.2-2.3v-18.5h3.8v18.2c0,4.8-2.6,6.1-5.5,6.1
			c-0.7,0-1.2,0-1.8-0.1V150.1z"/>
		<path class="st2" d="M236.2,139.6h5.2v3.5h-5.2v7.1h6.6v3.5h-10.4v-24.2h10.4v3.5h-6.6V139.6z"/>
	</g>
</g>
</svg>
