<?xml version="1.0" encoding="utf-8"?>
<!-- Generator: Adobe Illustrator 22.0.1, SVG Export Plug-In . SVG Version: 6.00 Build 0)  -->
<svg version="1.0" id="Capa_1" xmlns="http://www.w3.org/2000/svg" xmlns:xlink="http://www.w3.org/1999/xlink" x="0px" y="0px"
	 viewBox="0 0 348.3 289.6" style="enable-background:new 0 0 348.3 289.6;" xml:space="preserve">
<style type="text/css">
	.st0{fill:url(#SVGID_1_);}
	.st1{fill:#606060;}
</style>
<title>proyecto1</title>
<linearGradient id="SVGID_1_" gradientUnits="userSpaceOnUse" x1="-3.999397e-04" y1="143.9667" x2="591.2396" y2="143.9667" gradientTransform="matrix(1 0 0 -1 0 288.7717)">
	<stop  offset="0" style="stop-color:#13226F"/>
	<stop  offset="0.26" style="stop-color:#13226F"/>
	<stop  offset="0.99" style="stop-color:#B21E1C"/>
	<stop  offset="1" style="stop-color:#B21E1C"/>
</linearGradient>
<path class="st0" d="M340.7,98.3c-7.4-4.8-17.3-2.7-22.1,4.8c-0.1,0.2-0.3,0.4-0.4,0.7c-31.1,54-67.1,116.2-83.9,145.4
	c-2.9,5-8.2,8.1-14,8.1H109.1c-5.8,0-11.1-3.1-14-8.1l-55.6-96.3c-2.9-5-2.9-11.2,0-16.2l55.6-96.3c2.9-5,8.2-8.1,14-8.1h111.2
	c5.8,0,11.1,3.1,14,8.1l39.2,67.9c4.4,7.7,14.3,10.4,22,6c2.5-1.4,4.5-3.5,6-6l0,0c2.9-5,2.9-11.1,0-16.1L253,8.1
	c-2.9-5-8.2-8.1-14-8.1H90.4c-5.8,0-11.1,3.1-14,8.1L2.2,136.7c-2.9,5-2.9,11.2,0,16.2l74.3,128.6c2.9,5,8.2,8.1,14,8.1h148.5
	c5.8,0,11.1-3.1,14-8.1c12.8-22.1,23.8-41.1,93.3-161.5c4.3-7.4,2-16.8-5.2-21.5L340.7,98.3z"/>
<g>
	<g>
		<path class="st1" d="M137.3,156.9c-0.2-0.6-0.3-1-0.3-3v-3.8c0-2.2-0.8-3.1-2.5-3.1h-1.3v9.9h-3.8v-24.2h5.7
			c3.9,0,5.6,1.8,5.6,5.6v1.9c0,2.5-0.8,4.1-2.5,4.9v0.1c1.9,0.8,2.5,2.6,2.5,5.1v3.7c0,1.2,0,2,0.4,2.9H137.3z M133.1,136.1v7.4
			h1.5c1.4,0,2.3-0.6,2.3-2.6v-2.4c0-1.7-0.6-2.5-1.9-2.5H133.1z"/>
		<path class="st1" d="M143.2,132.7h3.8v24.2h-3.8V132.7z"/>
		<path class="st1" d="M155.5,143.4h5.3v7.7c0,3.9-1.9,6.1-5.7,6.1c-3.7,0-5.7-2.2-5.7-6.1v-12.6c0-3.9,1.9-6.1,5.7-6.1
			c3.7,0,5.7,2.2,5.7,6.1v2.4h-3.6v-2.6c0-1.7-0.8-2.4-2-2.4c-1.2,0-2,0.7-2,2.4v13.1c0,1.7,0.8,2.4,2,2.4c1.2,0,2-0.6,2-2.4v-4.5
			h-1.7V143.4z"/>
		<path class="st1" d="M179.9,138.7v3.1c0,3.9-1.9,6-5.7,6h-1.8v9.1h-3.8v-24.2h5.6C178.1,132.7,179.9,134.8,179.9,138.7z
			 M172.4,136.1v8.2h1.8c1.2,0,1.9-0.6,1.9-2.3v-3.6c0-1.7-0.7-2.3-1.9-2.3H172.4z"/>
		<path class="st1" d="M193.6,156.9h-3.8l-0.7-4.4h-4.7l-0.7,4.4h-3.5l3.9-24.2h5.6L193.6,156.9z M184.9,149.2h3.7l-1.8-12.3h-0.1
			L184.9,149.2z"/>
		<path class="st1" d="M200.4,132.4c3.7,0,5.6,2.2,5.6,6.1v0.8h-3.6v-1c0-1.7-0.7-2.4-1.9-2.4c-1.2,0-1.9,0.7-1.9,2.4
			c0,1.8,0.8,3.1,3.3,5.3c3.2,2.8,4.2,4.8,4.2,7.6c0,3.9-1.9,6.1-5.7,6.1s-5.7-2.2-5.7-6.1v-1.5h3.6v1.7c0,1.7,0.8,2.4,2,2.4
			c1.2,0,2-0.6,2-2.4c0-1.8-0.8-3.1-3.3-5.3c-3.2-2.8-4.2-4.8-4.2-7.6C194.8,134.6,196.7,132.4,200.4,132.4z"/>
		<path class="st1" d="M213.4,132.4c3.7,0,5.6,2.2,5.6,6.1v0.8h-3.6v-1c0-1.7-0.7-2.4-1.9-2.4c-1.2,0-1.9,0.7-1.9,2.4
			c0,1.8,0.8,3.1,3.3,5.3c3.2,2.8,4.2,4.8,4.2,7.6c0,3.9-1.9,6.1-5.7,6.1s-5.7-2.2-5.7-6.1v-1.5h3.6v1.7c0,1.7,0.8,2.4,2,2.4
			c1.2,0,2-0.6,2-2.4c0-1.8-0.8-3.1-3.3-5.3c-3.2-2.8-4.2-4.8-4.2-7.6C207.8,134.6,209.7,132.4,213.4,132.4z"/>
	</g>
</g>
</svg>
