<?xml version="1.0" encoding="utf-8"?>
<!-- Generator: Adobe Illustrator 22.0.1, SVG Export Plug-In . SVG Version: 6.00 Build 0)  -->
<svg version="1.0" id="Capa_1" xmlns="http://www.w3.org/2000/svg" xmlns:xlink="http://www.w3.org/1999/xlink" x="0px" y="0px"
	 viewBox="0 0 303.6 289.6" style="enable-background:new 0 0 303.6 289.6;" xml:space="preserve">
<style type="text/css">
	.st0{fill:url(#SVGID_1_);}
	.st1{fill:#606060;}
</style>
<title>proyecto3</title>
<linearGradient id="SVGID_1_" gradientUnits="userSpaceOnUse" x1="-297.13" y1="144.0167" x2="303.59" y2="144.0167" gradientTransform="matrix(1 0 0 -1 0 288.7717)">
	<stop  offset="0" style="stop-color:#13226F"/>
	<stop  offset="0.26" style="stop-color:#13226F"/>
	<stop  offset="0.99" style="stop-color:#B21E1C"/>
	<stop  offset="1" style="stop-color:#B21E1C"/>
</linearGradient>
<path class="st0" d="M301.4,136.7L227.2,8.1c-2.9-5-8.2-8.1-14-8.1H64.7c-5.8,0-11.1,3.1-14,8.1L20.8,59.9c-4.1,7.1-2.1,16.2,4.6,21
	l0.3,0.2c7.2,5.1,17.2,3.5,22.3-3.7c0.3-0.4,0.6-0.8,0.8-1.3l20.6-35.7c2.9-5,8.2-8.1,14-8.1h111.2c5.8,0,11.1,3.1,14,8.1l55.6,96.3
	c2.9,5,2.9,11.2,0,16.2l-55.6,96.3c-2.9,5-8.2,8.1-14,8.1H83.3c-5.8,0-11.1-3.1-14-8.1l-39.2-67.9c-4.4-7.7-14.3-10.4-22.1-5.9
	c-2.5,1.4-4.5,3.5-5.9,5.9l0,0c-2.9,5-2.9,11.1,0,16.1l48.5,84c2.9,5,8.2,8.1,14,8.1h148.5c5.8,0,11.1-3.1,14-8.1l74.2-128.6
	C304.3,147.8,304.3,141.7,301.4,136.7z"/>
<g>
	<g>
		<path class="st1" d="M41.4,144.3c-0.2-0.6-0.3-1-0.3-3v-3.8c0-2.2-0.8-3.1-2.5-3.1h-1.3v9.9h-3.8v-24.2h5.7c3.9,0,5.6,1.8,5.6,5.6
			v1.9c0,2.5-0.8,4.1-2.5,4.9v0.1c1.9,0.8,2.5,2.6,2.5,5.1v3.7c0,1.2,0,2,0.4,2.9H41.4z M37.3,123.5v7.4h1.5c1.4,0,2.3-0.6,2.3-2.6
			V126c0-1.7-0.6-2.5-1.9-2.5H37.3z"/>
		<path class="st1" d="M47.4,120.1h3.8v24.2h-3.8V120.1z"/>
		<path class="st1" d="M57.8,130.3H63v3.5h-5.2v7.1h6.6v3.5H53.9v-24.2h10.4v3.5h-6.6V130.3z"/>
		<path class="st1" d="M71.8,119.8c3.7,0,5.6,2.2,5.6,6.1v0.8h-3.6v-1c0-1.7-0.7-2.4-1.9-2.4c-1.2,0-1.9,0.7-1.9,2.4
			c0,1.8,0.8,3.1,3.3,5.3c3.2,2.8,4.2,4.8,4.2,7.6c0,3.9-1.9,6.1-5.7,6.1s-5.7-2.2-5.7-6.1V137h3.6v1.7c0,1.7,0.8,2.4,2,2.4
			c1.2,0,2-0.6,2-2.4c0-1.8-0.8-3.1-3.3-5.3c-3.2-2.8-4.2-4.8-4.2-7.6C66.2,122,68.1,119.8,71.8,119.8z"/>
		<path class="st1" d="M85.3,130.8h5.3v7.7c0,3.9-1.9,6.1-5.7,6.1c-3.7,0-5.7-2.2-5.7-6.1v-12.6c0-3.9,1.9-6.1,5.7-6.1
			c3.7,0,5.7,2.2,5.7,6.1v2.4h-3.6v-2.6c0-1.7-0.8-2.4-2-2.4c-1.2,0-2,0.7-2,2.4v13.1c0,1.7,0.8,2.4,2,2.4c1.2,0,2-0.6,2-2.4v-4.5
			h-1.7V130.8z"/>
		<path class="st1" d="M92.8,125.9c0-3.9,2-6.1,5.8-6.1c3.7,0,5.8,2.2,5.8,6.1v12.6c0,3.9-2,6.1-5.8,6.1c-3.7,0-5.8-2.2-5.8-6.1
			V125.9z M96.6,138.7c0,1.7,0.8,2.4,2,2.4c1.2,0,2-0.7,2-2.4v-13.1c0-1.7-0.8-2.4-2-2.4c-1.2,0-2,0.7-2,2.4V138.7z"/>
		<path class="st1" d="M116,130.3h5.2v3.5H116v7.1h6.6v3.5h-10.4v-24.2h10.4v3.5H116V130.3z"/>
		<path class="st1" d="M128.4,126.7L128.4,126.7l-0.1,17.5h-3.4v-24.2h4.8l3.8,14.5h0.1v-14.5h3.4v24.2h-3.9L128.4,126.7z"/>
		<path class="st1" d="M148.9,130.3h5.2v3.5h-5.2v7.1h6.6v3.5h-10.4v-24.2h10.4v3.5h-6.6V130.3z"/>
		<path class="st1" d="M162.9,119.8c3.7,0,5.6,2.2,5.6,6.1v0.8h-3.6v-1c0-1.7-0.7-2.4-1.9-2.4c-1.2,0-1.9,0.7-1.9,2.4
			c0,1.8,0.8,3.1,3.3,5.3c3.2,2.8,4.2,4.8,4.2,7.6c0,3.9-1.9,6.1-5.7,6.1s-5.7-2.2-5.7-6.1V137h3.6v1.7c0,1.7,0.8,2.4,2,2.4
			c1.2,0,2-0.6,2-2.4c0-1.8-0.8-3.1-3.3-5.3c-3.2-2.8-4.2-4.8-4.2-7.6C157.3,122,159.2,119.8,162.9,119.8z"/>
		<path class="st1" d="M182,126.1v3.1c0,3.9-1.9,6-5.7,6h-1.8v9.1h-3.8v-24.2h5.6C180.1,120.1,182,122.2,182,126.1z M174.5,123.5
			v8.2h1.8c1.2,0,1.9-0.6,1.9-2.3v-3.6c0-1.7-0.7-2.3-1.9-2.3H174.5z"/>
		<path class="st1" d="M195.7,144.3h-3.8l-0.7-4.4h-4.7l-0.7,4.4h-3.5l3.9-24.2h5.6L195.7,144.3z M187,136.6h3.7l-1.8-12.3h-0.1
			L187,136.6z"/>
		<path class="st1" d="M208.4,135.3v3.2c0,3.9-1.9,6.1-5.7,6.1c-3.7,0-5.7-2.2-5.7-6.1v-12.6c0-3.9,1.9-6.1,5.7-6.1
			c3.7,0,5.7,2.2,5.7,6.1v2.4h-3.6v-2.6c0-1.7-0.8-2.4-2-2.4c-1.2,0-2,0.7-2,2.4v13.1c0,1.7,0.8,2.4,2,2.4c1.2,0,2-0.6,2-2.4v-3.5
			H208.4z"/>
		<path class="st1" d="M210.7,120.1h3.8v24.2h-3.8V120.1z"/>
		<path class="st1" d="M217,125.9c0-3.9,2-6.1,5.8-6.1c3.7,0,5.8,2.2,5.8,6.1v12.6c0,3.9-2,6.1-5.8,6.1c-3.7,0-5.8-2.2-5.8-6.1
			V125.9z M220.8,138.7c0,1.7,0.8,2.4,2,2.4c1.2,0,2-0.7,2-2.4v-13.1c0-1.7-0.8-2.4-2-2.4c-1.2,0-2,0.7-2,2.4V138.7z"/>
		<path class="st1" d="M236.1,119.8c3.7,0,5.6,2.2,5.6,6.1v0.8h-3.6v-1c0-1.7-0.7-2.4-1.9-2.4c-1.2,0-1.9,0.7-1.9,2.4
			c0,1.8,0.8,3.1,3.3,5.3c3.2,2.8,4.2,4.8,4.2,7.6c0,3.9-1.9,6.1-5.7,6.1s-5.7-2.2-5.7-6.1V137h3.6v1.7c0,1.7,0.8,2.4,2,2.4
			c1.2,0,2-0.6,2-2.4c0-1.8-0.8-3.1-3.3-5.3c-3.2-2.8-4.2-4.8-4.2-7.6C230.5,122,232.4,119.8,236.1,119.8z"/>
		<path class="st1" d="M87.5,170.3v3.2c0,3.9-1.9,6.1-5.7,6.1c-3.7,0-5.7-2.2-5.7-6.1v-12.6c0-3.9,1.9-6.1,5.7-6.1
			c3.7,0,5.7,2.2,5.7,6.1v2.4h-3.6v-2.6c0-1.7-0.8-2.4-2-2.4c-1.2,0-2,0.7-2,2.4v13.1c0,1.7,0.8,2.4,2,2.4c1.2,0,2-0.6,2-2.4v-3.5
			H87.5z"/>
		<path class="st1" d="M89.5,160.9c0-3.9,2-6.1,5.8-6.1c3.7,0,5.8,2.2,5.8,6.1v12.6c0,3.9-2,6.1-5.8,6.1c-3.7,0-5.8-2.2-5.8-6.1
			V160.9z M93.3,173.7c0,1.7,0.8,2.4,2,2.4c1.2,0,2-0.7,2-2.4v-13.1c0-1.7-0.8-2.4-2-2.4c-1.2,0-2,0.7-2,2.4V173.7z"/>
		<path class="st1" d="M106.9,161.7L106.9,161.7l-0.1,17.5h-3.4v-24.2h4.8l3.8,14.5h0.1v-14.5h3.4v24.2h-3.9L106.9,161.7z"/>
		<path class="st1" d="M122.1,165.8h4.9v3.5h-4.9v10h-3.8v-24.2h10.1v3.5h-6.3V165.8z"/>
		<path class="st1" d="M130.2,155.1h3.8v24.2h-3.8V155.1z"/>
		<path class="st1" d="M140.2,161.7L140.2,161.7l-0.1,17.5h-3.4v-24.2h4.8l3.8,14.5h0.1v-14.5h3.4v24.2h-3.9L140.2,161.7z"/>
		<path class="st1" d="M163.8,179.3H160l-0.7-4.4h-4.7l-0.7,4.4h-3.5l3.9-24.2h5.6L163.8,179.3z M155.1,171.6h3.7l-1.8-12.3h-0.1
			L155.1,171.6z"/>
		<path class="st1" d="M165.6,155.1h6c3.8,0,5.7,2.1,5.7,6v12.3c0,3.9-1.9,6-5.7,6h-6V155.1z M169.4,158.5v17.3h2.1
			c1.2,0,1.9-0.6,1.9-2.4v-12.6c0-1.7-0.7-2.4-1.9-2.4H169.4z"/>
		<path class="st1" d="M179.4,160.9c0-3.9,2-6.1,5.8-6.1c3.7,0,5.8,2.2,5.8,6.1v12.6c0,3.9-2,6.1-5.8,6.1c-3.7,0-5.8-2.2-5.8-6.1
			V160.9z M183.2,173.7c0,1.7,0.8,2.4,2,2.4c1.2,0,2-0.7,2-2.4v-13.1c0-1.7-0.8-2.4-2-2.4c-1.2,0-2,0.7-2,2.4V173.7z"/>
		<path class="st1" d="M198.5,154.8c3.7,0,5.6,2.2,5.6,6.1v0.8h-3.6v-1c0-1.7-0.7-2.4-1.9-2.4c-1.2,0-1.9,0.7-1.9,2.4
			c0,1.8,0.8,3.1,3.3,5.3c3.2,2.8,4.2,4.8,4.2,7.6c0,3.9-1.9,6.1-5.7,6.1s-5.7-2.2-5.7-6.1V172h3.6v1.7c0,1.7,0.8,2.4,2,2.4
			c1.2,0,2-0.6,2-2.4c0-1.8-0.8-3.1-3.3-5.3c-3.2-2.8-4.2-4.8-4.2-7.6C192.9,157,194.8,154.8,198.5,154.8z"/>
	</g>
</g>
</svg>
