<?xml version="1.0" encoding="utf-8"?>
<!-- Generator: Adobe Illustrator 22.0.1, SVG Export Plug-In . SVG Version: 6.00 Build 0)  -->
<svg version="1.0" id="Capa_1" xmlns="http://www.w3.org/2000/svg" xmlns:xlink="http://www.w3.org/1999/xlink" x="0px" y="0px"
	 viewBox="0 0 326.9 289.6" style="enable-background:new 0 0 326.9 289.6;" xml:space="preserve">
<style type="text/css">
	.st0{fill:url(#SVGID_1_);}
	.st1{fill:url(#SVGID_2_);}
	.st2{fill:#606060;}
</style>
<title>proyecto2</title>
<linearGradient id="SVGID_1_" gradientUnits="userSpaceOnUse" x1="1.101442e-03" y1="99.8141" x2="591.6311" y2="99.8141" gradientTransform="matrix(1 0 0 -1 0 288.7717)">
	<stop  offset="0" style="stop-color:#13226F"/>
	<stop  offset="0.26" style="stop-color:#13226F"/>
	<stop  offset="0.99" style="stop-color:#B21E1C"/>
	<stop  offset="1" style="stop-color:#B21E1C"/>
</linearGradient>
<path class="st0" d="M320.1,91.4c-7.2-5.2-17.2-3.6-22.3,3.6c-0.3,0.5-0.6,0.9-0.9,1.4l-88.2,152.8c-2.9,5-8.2,8-14,8H83.4
	c-5.8,0-11.1-3.1-14-8.1l-39.3-68c-4.5-7.7-14.3-10.4-22.1-5.9c-2.5,1.4-4.5,3.5-5.9,5.9l0,0c-2.9,5-2.9,11.1,0,16.1l48.6,84.2
	c2.9,5,8.2,8.1,14,8.1h148.5c5.8,0,11.1-3.1,14-8.1c66.5-115.1,71.9-124.6,97.5-168.9c4.1-7.1,2.2-16.1-4.5-20.9L320.1,91.4z
	 M208.6,249.2L208.6,249.2l36.1-62.4C236.4,201,224.7,221.3,208.6,249.2z M252.2,173.7c-0.1,0.1-0.2,0.3-0.3,0.4L252.2,173.7z
	 M245.8,184.8l-0.8,1.4C245.2,185.8,245.5,185.3,245.8,184.8L245.8,184.8z"/>
<linearGradient id="SVGID_2_" gradientUnits="userSpaceOnUse" x1="-308.18" y1="230.4959" x2="280.29" y2="230.4959" gradientTransform="matrix(1 0 0 -1 0 288.7717)">
	<stop  offset="0" style="stop-color:#13226F"/>
	<stop  offset="0.26" style="stop-color:#13226F"/>
	<stop  offset="0.99" style="stop-color:#B21E1C"/>
	<stop  offset="1" style="stop-color:#B21E1C"/>
</linearGradient>
<path class="st1" d="M278.1,92.3L229.5,8.1c-2.9-5-8.2-8.1-14-8.1H67c-5.8,0-11.1,3.1-14,8.1L18.7,67.5c-4.2,7.4-2,16.7,5.1,21.4
	l0.3,0.2c7.4,4.8,17.3,2.8,22.1-4.6c0.2-0.2,0.3-0.5,0.5-0.7l25-43.3c2.9-5,8.2-8.1,14-8.1h111.2c5.8,0,11.1,3.1,14,8.1l39.3,68.1
	c4.5,7.7,14.3,10.4,22.1,5.9c2.5-1.4,4.5-3.5,5.9-5.9l0,0C281.1,103.4,281,97.3,278.1,92.3z"/>
<g>
	<g>
		<path class="st2" d="M80.8,138.2L80.8,138.2l2.9-19.8h3.5l-3.7,24.2h-5.7l-3.7-24.2h3.8L80.8,138.2z"/>
		<path class="st2" d="M92.8,128.6H98v3.5h-5.2v7.1h6.6v3.5H89v-24.2h10.4v3.5h-6.6V128.6z"/>
		<path class="st2" d="M109.7,142.6c-0.2-0.6-0.3-1-0.3-3v-3.8c0-2.2-0.8-3.1-2.5-3.1h-1.3v9.9h-3.8v-24.2h5.7
			c3.9,0,5.6,1.8,5.6,5.6v1.9c0,2.5-0.8,4.1-2.5,4.9v0.1c1.9,0.8,2.5,2.6,2.5,5.1v3.7c0,1.2,0,2,0.4,2.9H109.7z M105.5,121.9v7.4
			h1.5c1.4,0,2.3-0.6,2.3-2.6v-2.4c0-1.7-0.6-2.5-1.9-2.5H105.5z"/>
		<path class="st2" d="M115.6,118.4h3.8v24.2h-3.8V118.4z"/>
		<path class="st2" d="M126,129.2h4.9v3.5H126v10h-3.8v-24.2h10.1v3.5H126V129.2z"/>
		<path class="st2" d="M134.1,118.4h3.8v24.2h-3.8V118.4z"/>
		<path class="st2" d="M151.7,133.6v3.2c0,3.9-1.9,6.1-5.7,6.1c-3.7,0-5.7-2.2-5.7-6.1v-12.6c0-3.9,1.9-6.1,5.7-6.1
			c3.7,0,5.7,2.2,5.7,6.1v2.4h-3.6V124c0-1.7-0.8-2.4-2-2.4c-1.2,0-2,0.7-2,2.4v13.1c0,1.7,0.8,2.4,2,2.4c1.2,0,2-0.6,2-2.4v-3.5
			H151.7z"/>
		<path class="st2" d="M166.4,142.6h-3.8l-0.7-4.4h-4.7l-0.7,4.4h-3.5l3.9-24.2h5.6L166.4,142.6z M157.7,135h3.7l-1.8-12.3h-0.1
			L157.7,135z"/>
		<path class="st2" d="M168.1,118.4h6c3.8,0,5.7,2.1,5.7,6v12.3c0,3.9-1.9,6-5.7,6h-6V118.4z M171.9,121.9v17.3h2.1
			c1.2,0,1.9-0.6,1.9-2.4v-12.6c0-1.7-0.7-2.4-1.9-2.4H171.9z"/>
		<path class="st2" d="M181.9,124.2c0-3.9,2-6.1,5.8-6.1c3.7,0,5.8,2.2,5.8,6.1v12.6c0,3.9-2,6.1-5.8,6.1c-3.7,0-5.8-2.2-5.8-6.1
			V124.2z M185.8,137.1c0,1.7,0.8,2.4,2,2.4c1.2,0,2-0.7,2-2.4V124c0-1.7-0.8-2.4-2-2.4c-1.2,0-2,0.7-2,2.4V137.1z"/>
		<path class="st2" d="M203.9,142.6c-0.2-0.6-0.3-1-0.3-3v-3.8c0-2.2-0.8-3.1-2.5-3.1h-1.3v9.9H196v-24.2h5.7c3.9,0,5.6,1.8,5.6,5.6
			v1.9c0,2.5-0.8,4.1-2.5,4.9v0.1c1.9,0.8,2.5,2.6,2.5,5.1v3.7c0,1.2,0,2,0.4,2.9H203.9z M199.8,121.9v7.4h1.5
			c1.4,0,2.3-0.6,2.3-2.6v-2.4c0-1.7-0.6-2.5-1.9-2.5H199.8z"/>
		<path class="st2" d="M106.1,153.4h6c3.8,0,5.7,2.1,5.7,6v12.3c0,3.9-1.9,6-5.7,6h-6V153.4z M109.9,156.9v17.3h2.1
			c1.2,0,1.9-0.6,1.9-2.4v-12.6c0-1.7-0.7-2.4-1.9-2.4H109.9z"/>
		<path class="st2" d="M124.1,163.6h5.2v3.5h-5.2v7.1h6.6v3.5h-10.4v-24.2h10.4v3.5h-6.6V163.6z"/>
		<path class="st2" d="M144.1,164.1h5.3v7.7c0,3.9-1.9,6.1-5.7,6.1c-3.7,0-5.7-2.2-5.7-6.1v-12.6c0-3.9,1.9-6.1,5.7-6.1
			c3.7,0,5.7,2.2,5.7,6.1v2.4h-3.6V159c0-1.7-0.8-2.4-2-2.4c-1.2,0-2,0.7-2,2.4v13.1c0,1.7,0.8,2.4,2,2.4c1.2,0,2-0.6,2-2.4v-4.5
			h-1.7V164.1z"/>
		<path class="st2" d="M164.1,177.6h-3.8l-0.7-4.4H155l-0.7,4.4h-3.5l3.9-24.2h5.6L164.1,177.6z M155.4,170h3.7l-1.8-12.3h-0.1
			L155.4,170z"/>
		<path class="st2" d="M171,153.1c3.7,0,5.6,2.2,5.6,6.1v0.8H173v-1c0-1.7-0.7-2.4-1.9-2.4c-1.2,0-1.9,0.7-1.9,2.4
			c0,1.8,0.8,3.1,3.3,5.3c3.2,2.8,4.2,4.8,4.2,7.6c0,3.9-1.9,6.1-5.7,6.1s-5.7-2.2-5.7-6.1v-1.5h3.6v1.7c0,1.7,0.8,2.4,2,2.4
			c1.2,0,2-0.6,2-2.4c0-1.8-0.8-3.1-3.3-5.3c-3.2-2.8-4.2-4.8-4.2-7.6C165.4,155.3,167.3,153.1,171,153.1z"/>
	</g>
</g>
</svg>
