<?xml version="1.0" encoding="utf-8"?>
<!-- Generator: Adobe Illustrator 22.0.1, SVG Export Plug-In . SVG Version: 6.00 Build 0)  -->
<svg version="1.0" id="Capa_1" xmlns="http://www.w3.org/2000/svg" xmlns:xlink="http://www.w3.org/1999/xlink" x="0px" y="0px"
	 viewBox="0 0 348.3 289.6" style="enable-background:new 0 0 348.3 289.6;" xml:space="preserve">
<style type="text/css">
	.st0{fill:url(#SVGID_1_);}
	.st1{fill:#606060;}
</style>
<title>proyecto1</title>
<linearGradient id="SVGID_1_" gradientUnits="userSpaceOnUse" x1="-3.999397e-04" y1="143.9667" x2="591.2396" y2="143.9667" gradientTransform="matrix(1 0 0 -1 0 288.7717)">
	<stop  offset="0" style="stop-color:#13226F"/>
	<stop  offset="0.26" style="stop-color:#13226F"/>
	<stop  offset="0.99" style="stop-color:#B21E1C"/>
	<stop  offset="1" style="stop-color:#B21E1C"/>
</linearGradient>
<path class="st0" d="M340.7,98.3c-7.4-4.8-17.3-2.7-22.1,4.8c-0.1,0.2-0.3,0.4-0.4,0.7c-31.1,54-67.1,116.2-83.9,145.4
	c-2.9,5-8.2,8.1-14,8.1H109.1c-5.8,0-11.1-3.1-14-8.1l-55.6-96.3c-2.9-5-2.9-11.2,0-16.2l55.6-96.3c2.9-5,8.2-8.1,14-8.1h111.2
	c5.8,0,11.1,3.1,14,8.1l39.2,67.9c4.4,7.7,14.3,10.4,22,6c2.5-1.4,4.5-3.5,6-6l0,0c2.9-5,2.9-11.1,0-16.1L253,8.1
	c-2.9-5-8.2-8.1-14-8.1H90.4c-5.8,0-11.1,3.1-14,8.1L2.2,136.7c-2.9,5-2.9,11.2,0,16.2l74.3,128.6c2.9,5,8.2,8.1,14,8.1h148.5
	c5.8,0,11.1-3.1,14-8.1c12.8-22.1,23.8-41.1,93.3-161.5c4.3-7.4,2-16.8-5.2-21.5L340.7,98.3z"/>
<g>
	<g>
		<path class="st1" d="M91.3,147.9v3.2c0,3.9-1.9,6.1-5.7,6.1c-3.7,0-5.7-2.2-5.7-6.1v-12.6c0-3.9,1.9-6.1,5.7-6.1
			c3.7,0,5.7,2.2,5.7,6.1v2.4h-3.6v-2.6c0-1.7-0.8-2.4-2-2.4c-1.2,0-2,0.7-2,2.4v13.1c0,1.7,0.8,2.4,2,2.4c1.2,0,2-0.6,2-2.4v-3.5
			H91.3z"/>
		<path class="st1" d="M93.4,138.5c0-3.9,2-6.1,5.8-6.1c3.7,0,5.8,2.2,5.8,6.1v12.6c0,3.9-2,6.1-5.8,6.1c-3.7,0-5.8-2.2-5.8-6.1
			V138.5z M97.2,151.3c0,1.7,0.8,2.4,2,2.4c1.2,0,2-0.7,2-2.4v-13.1c0-1.7-0.8-2.4-2-2.4c-1.2,0-2,0.7-2,2.4V151.3z"/>
		<path class="st1" d="M110.8,139.3L110.8,139.3l-0.1,17.5h-3.4v-24.2h4.8l3.8,14.5h0.1v-14.5h3.4v24.2h-3.9L110.8,139.3z"/>
		<path class="st1" d="M121,132.7h11.8v3.5h-4v20.8H125v-20.8h-4V132.7z"/>
		<path class="st1" d="M142.4,156.9c-0.2-0.6-0.3-1-0.3-3v-3.8c0-2.2-0.8-3.1-2.5-3.1h-1.3v9.9h-3.8v-24.2h5.7
			c3.9,0,5.6,1.8,5.6,5.6v1.9c0,2.5-0.8,4.1-2.5,4.9v0.1c1.9,0.8,2.5,2.6,2.5,5.1v3.7c0,1.2,0,2,0.4,2.9H142.4z M138.3,136.1v7.4
			h1.5c1.4,0,2.3-0.6,2.3-2.6v-2.4c0-1.7-0.6-2.5-1.9-2.5H138.3z"/>
		<path class="st1" d="M160.7,156.9h-3.8l-0.7-4.4h-4.7l-0.7,4.4h-3.5l3.9-24.2h5.6L160.7,156.9z M152,149.2h3.7l-1.8-12.3h-0.1
			L152,149.2z"/>
		<path class="st1" d="M167.8,132.7h3.8v24.2h-3.8V132.7z"/>
		<path class="st1" d="M177.9,139.3L177.9,139.3l-0.1,17.5h-3.4v-24.2h4.8l3.8,14.5h0.1v-14.5h3.4v24.2h-3.9L177.9,139.3z"/>
		<path class="st1" d="M200.2,147.9v3.2c0,3.9-1.9,6.1-5.7,6.1c-3.7,0-5.7-2.2-5.7-6.1v-12.6c0-3.9,1.9-6.1,5.7-6.1
			c3.7,0,5.7,2.2,5.7,6.1v2.4h-3.6v-2.6c0-1.7-0.8-2.4-2-2.4c-1.2,0-2,0.7-2,2.4v13.1c0,1.7,0.8,2.4,2,2.4c1.2,0,2-0.6,2-2.4v-3.5
			H200.2z"/>
		<path class="st1" d="M206.3,142.9h5.2v3.5h-5.2v7.1h6.6v3.5h-10.4v-24.2h10.4v3.5h-6.6V142.9z"/>
		<path class="st1" d="M218.7,139.3L218.7,139.3l-0.1,17.5h-3.4v-24.2h4.8l3.8,14.5h0.1v-14.5h3.4v24.2h-3.9L218.7,139.3z"/>
		<path class="st1" d="M230,132.7h6c3.8,0,5.7,2.1,5.7,6v12.3c0,3.9-1.9,6-5.7,6h-6V132.7z M233.9,136.1v17.3h2.1
			c1.2,0,1.9-0.6,1.9-2.4v-12.6c0-1.7-0.7-2.4-1.9-2.4H233.9z"/>
		<path class="st1" d="M244.2,132.7h3.8v24.2h-3.8V132.7z"/>
		<path class="st1" d="M250.4,138.5c0-3.9,2-6.1,5.8-6.1c3.7,0,5.8,2.2,5.8,6.1v12.6c0,3.9-2,6.1-5.8,6.1c-3.7,0-5.8-2.2-5.8-6.1
			V138.5z M254.2,151.3c0,1.7,0.8,2.4,2,2.4c1.2,0,2-0.7,2-2.4v-13.1c0-1.7-0.8-2.4-2-2.4c-1.2,0-2,0.7-2,2.4V151.3z"/>
	</g>
</g>
</svg>
