<?xml version="1.0" encoding="utf-8"?>
<!-- Generator: Adobe Illustrator 22.0.1, SVG Export Plug-In . SVG Version: 6.00 Build 0)  -->
<svg version="1.1" id="Capa_1" xmlns="http://www.w3.org/2000/svg" xmlns:xlink="http://www.w3.org/1999/xlink" x="0px" y="0px"
	 viewBox="0 0 326.9 289.6" style="enable-background:new 0 0 326.9 289.6;" xml:space="preserve">
<style type="text/css">
	.st0{fill:url(#SVGID_1_);}
	.st1{fill:#606060;}
	.st2{fill:url(#SVGID_2_);}
</style>
<title>proyecto2</title>
<linearGradient id="SVGID_1_" gradientUnits="userSpaceOnUse" x1="1.101442e-03" y1="99.8141" x2="591.6311" y2="99.8141" gradientTransform="matrix(1 0 0 -1 0 288.7717)">
	<stop  offset="0" style="stop-color:#13226F"/>
	<stop  offset="0.26" style="stop-color:#13226F"/>
	<stop  offset="0.99" style="stop-color:#B21E1C"/>
	<stop  offset="1" style="stop-color:#B21E1C"/>
</linearGradient>
<path class="st0" d="M320.1,91.4c-7.2-5.2-17.2-3.6-22.3,3.6c-0.3,0.5-0.6,0.9-0.9,1.4l-88.2,152.8c-2.9,5-8.2,8-14,8H83.4
	c-5.8,0-11.1-3.1-14-8.1l-39.3-68c-4.5-7.7-14.3-10.4-22.1-5.9c-2.5,1.4-4.5,3.5-5.9,5.9l0,0c-2.9,5-2.9,11.1,0,16.1l48.6,84.2
	c2.9,5,8.2,8.1,14,8.1h148.5c5.8,0,11.1-3.1,14-8.1c66.5-115.1,71.9-124.6,97.5-168.9c4.1-7.1,2.2-16.1-4.5-20.9L320.1,91.4z
	 M208.6,249.2L208.6,249.2l36.1-62.4C236.4,201,224.7,221.3,208.6,249.2z M252.2,173.7c-0.1,0.1-0.2,0.3-0.3,0.4L252.2,173.7z
	 M245.8,184.8l-0.8,1.4C245.2,185.8,245.5,185.3,245.8,184.8L245.8,184.8z"/>
<path class="st1" d="M49.8,144.8h-3.8l-0.7-4.4h-4.7l-0.7,4.4h-3.5l3.9-24.2h5.6L49.8,144.8z M41.1,137.1h3.7L43,124.8h-0.1
	L41.1,137.1z"/>
<path class="st1" d="M55,127.2L55,127.2l-0.1,17.5h-3.4v-24.2h4.8l3.8,14.5h0.1v-14.5h3.4v24.2h-3.9L55,127.2z"/>
<path class="st1" d="M78.6,144.8h-3.8l-0.7-4.4h-4.7l-0.7,4.4h-3.5l3.9-24.2h5.6L78.6,144.8z M69.9,137.1h3.7l-1.8-12.2h-0.1
	L69.9,137.1z"/>
<path class="st1" d="M80.4,120.6h3.8v20.8h6.3v3.5H80.4V120.6z"/>
<path class="st1" d="M92.1,120.6h3.8v24.2h-3.8V120.6z"/>
<path class="st1" d="M103.8,120.3c3.7,0,5.6,2.2,5.6,6.1v0.8h-3.6v-1c0-1.7-0.7-2.4-1.9-2.4s-1.9,0.7-1.9,2.4s0.8,3.1,3.2,5.3
	c3.2,2.8,4.2,4.8,4.2,7.6c0,3.9-1.9,6.1-5.7,6.1s-5.7-2.2-5.7-6.1v-1.5h3.6v1.7c0,1.7,0.8,2.4,2,2.4s2-0.6,2-2.4s-0.8-3.1-3.2-5.3
	c-3.2-2.8-4.2-4.8-4.2-7.6C98.2,122.5,100.1,120.3,103.8,120.3z"/>
<path class="st1" d="M111.6,120.6h3.8v24.2h-3.8V120.6z"/>
<path class="st1" d="M123.3,120.3c3.7,0,5.6,2.2,5.6,6.1v0.8h-3.6v-1c0-1.7-0.7-2.4-1.9-2.4s-1.9,0.7-1.9,2.4s0.8,3.1,3.2,5.3
	c3.2,2.8,4.2,4.8,4.2,7.6c0,3.9-1.9,6.1-5.7,6.1s-5.7-2.2-5.7-6.1v-1.5h3.6v1.7c0,1.7,0.8,2.4,2,2.4s2-0.6,2-2.4s-0.8-3.1-3.2-5.3
	c-3.2-2.8-4.2-4.8-4.2-7.6C117.7,122.5,119.6,120.3,123.3,120.3z"/>
<path class="st1" d="M136.5,120.6h6c3.8,0,5.7,2.1,5.7,6v12.2c0,3.9-1.9,6-5.7,6h-6V120.6z M140.3,124v17.3h2.1
	c1.2,0,1.9-0.6,1.9-2.4v-12.6c0-1.7-0.7-2.3-1.9-2.3L140.3,124z"/>
<path class="st1" d="M154.4,130.8h5.2v3.5h-5.2v7.1h6.6v3.5h-10.4v-24.2H161v3.4h-6.6L154.4,130.8z"/>
<path class="st1" d="M176.7,144.8c-0.3-1-0.4-2-0.4-3V138c0-2.2-0.8-3.1-2.5-3.1h-1.3v9.9h-3.8v-24.2h5.7c4,0,5.6,1.8,5.6,5.6v1.9
	c0,2.5-0.8,4.1-2.5,4.9v0.1c1.9,0.8,2.5,2.6,2.5,5.1v3.7c-0.1,1,0.1,2,0.4,2.9L176.7,144.8z M172.5,124v7.4h1.5
	c1.4,0,2.3-0.6,2.3-2.6v-2.4c0-1.7-0.6-2.5-1.9-2.5L172.5,124z"/>
<path class="st1" d="M182.6,120.6h3.8v24.2h-3.8V120.6z"/>
<path class="st1" d="M193,130.8h5.2v3.5H193v7.1h6.6v3.5h-10.4v-24.2h10.4v3.4H193V130.8z"/>
<path class="st1" d="M207.1,120.3c3.7,0,5.6,2.2,5.6,6.1v0.8h-3.6v-1c0-1.7-0.7-2.4-1.9-2.4s-1.9,0.7-1.9,2.4s0.8,3.1,3.2,5.3
	c3.2,2.8,4.2,4.8,4.2,7.6c0,3.9-1.9,6.1-5.7,6.1s-5.7-2.2-5.7-6.1v-1.5h3.6v1.7c0,1.7,0.8,2.4,2,2.4s2-0.6,2-2.4s-0.8-3.1-3.2-5.3
	c-3.2-2.8-4.2-4.8-4.2-7.6C201.5,122.5,203.4,120.3,207.1,120.3z"/>
<path class="st1" d="M220.6,131.3h5.3v7.7c0,3.9-1.9,6.1-5.7,6.1s-5.7-2.2-5.7-6.1v-12.6c0-3.9,1.9-6.1,5.7-6.1s5.7,2.2,5.7,6.1v2.4
	h-3.6v-2.6c0-1.7-0.8-2.4-2-2.4s-2,0.7-2,2.4v13.1c0,1.7,0.8,2.4,2,2.4s2-0.6,2-2.4v-4.5h-1.7V131.3z"/>
<path class="st1" d="M228.1,126.4c0-3.9,2-6.1,5.8-6.1s5.8,2.2,5.8,6.1V139c0,3.9-2,6.1-5.8,6.1s-5.8-2.2-5.8-6.1V126.4z
	 M231.9,139.2c0,1.7,0.8,2.4,2,2.4s2-0.7,2-2.4v-13.1c0-1.7-0.8-2.4-2-2.4s-2,0.7-2,2.4V139.2z"/>
<path class="st1" d="M51.3,155.6h6c3.8,0,5.7,2.1,5.7,6v12.2c0,3.9-1.9,6-5.7,6h-6L51.3,155.6z M55.1,159v17.3h2.2
	c1.2,0,1.9-0.6,1.9-2.4v-12.6c0-1.7-0.7-2.4-1.9-2.4L55.1,159z"/>
<path class="st1" d="M69.2,165.8h5.2v3.5h-5.2v7.1h6.6v3.5H65.4v-24.2h10.4v3.4h-6.6V165.8z"/>
<path class="st1" d="M83.5,155.6h3.8v20.8h6.3v3.5H83.5V155.6z"/>
<path class="st1" d="M94.9,161.4c0-3.9,2-6.1,5.8-6.1s5.8,2.2,5.8,6.1V174c0,3.9-2,6.1-5.8,6.1s-5.8-2.2-5.8-6.1V161.4z M98.8,174.2
	c0,1.7,0.8,2.4,2,2.4s2-0.7,2-2.4v-13.1c0-1.7-0.8-2.4-2-2.4s-2,0.7-2,2.4V174.2z"/>
<path class="st1" d="M114.1,155.3c3.7,0,5.6,2.2,5.6,6.1v0.8h-3.6v-1c0-1.7-0.7-2.4-1.9-2.4s-1.9,0.7-1.9,2.4s0.8,3.1,3.2,5.3
	c3.2,2.8,4.2,4.8,4.2,7.6c0,3.9-1.9,6.1-5.7,6.1s-5.7-2.2-5.7-6.1v-1.5h3.6v1.7c0,1.7,0.8,2.4,2,2.4s2-0.6,2-2.4s-0.8-3.1-3.2-5.3
	c-3.2-2.8-4.2-4.8-4.2-7.6C108.5,157.5,110.4,155.3,114.1,155.3z"/>
<path class="st1" d="M138.5,161.5v3.1c0,3.9-1.9,6-5.7,6h-1.8v9.1h-3.8v-24.2h5.6C136.7,155.6,138.5,157.7,138.5,161.5z M131.1,159
	v8.2h1.8c1.2,0,1.9-0.6,1.9-2.3v-3.6c0-1.7-0.7-2.3-1.9-2.3L131.1,159z"/>
<path class="st1" d="M148.3,179.8c-0.3-1-0.4-2-0.4-3V173c0-2.2-0.8-3.1-2.5-3.1h-1.3v9.9h-3.8v-24.2h5.7c3.9,0,5.6,1.8,5.6,5.6v1.9
	c0,2.5-0.8,4.1-2.5,4.9v0.1c1.9,0.8,2.5,2.6,2.5,5.1v3.7c-0.1,1,0.1,2,0.4,2.9L148.3,179.8z M144.1,159v7.4h1.5
	c1.4,0,2.3-0.6,2.3-2.6v-2.4c0-1.7-0.6-2.5-1.9-2.5H144.1z"/>
<path class="st1" d="M153.9,161.4c0-3.9,2-6.1,5.8-6.1s5.8,2.2,5.8,6.1V174c0,3.9-2,6.1-5.8,6.1s-5.8-2.2-5.8-6.1V161.4z
	 M157.7,174.2c0,1.7,0.8,2.4,2,2.4s2-0.7,2-2.4v-13.1c0-1.7-0.8-2.4-2-2.4s-2,0.7-2,2.4V174.2z"/>
<path class="st1" d="M179,170.8v3.2c0,3.9-1.9,6.1-5.7,6.1s-5.7-2.2-5.7-6.1v-12.6c0-3.9,1.9-6.1,5.7-6.1s5.7,2.2,5.7,6.1v2.4h-3.6
	v-2.6c0-1.7-0.8-2.4-2-2.4s-2,0.7-2,2.4v13.1c0,1.7,0.8,2.4,2,2.4s2-0.6,2-2.4v-3.5L179,170.8z"/>
<path class="st1" d="M185.1,165.8h5.2v3.5h-5.2v7.1h6.6v3.5h-10.4v-24.2h10.4v3.4h-6.6V165.8z"/>
<path class="st1" d="M199.1,155.3c3.7,0,5.6,2.2,5.6,6.1v0.8h-3.6v-1c0-1.7-0.7-2.4-1.9-2.4s-1.9,0.7-1.9,2.4s0.8,3.1,3.2,5.3
	c3.2,2.8,4.2,4.8,4.2,7.6c0,3.9-1.9,6.1-5.7,6.1s-5.7-2.2-5.7-6.1v-1.5h3.6v1.7c0,1.7,0.8,2.4,2,2.4s2-0.6,2-2.4s-0.8-3.1-3.2-5.3
	c-3.2-2.8-4.2-4.8-4.2-7.6C193.5,157.5,195.4,155.3,199.1,155.3z"/>
<path class="st1" d="M206.6,161.4c0-3.9,2-6.1,5.8-6.1s5.8,2.2,5.8,6.1V174c0,3.9-2,6.1-5.8,6.1s-5.8-2.2-5.8-6.1V161.4z
	 M210.4,174.2c0,1.7,0.8,2.4,2,2.4s2-0.7,2-2.4v-13.1c0-1.7-0.8-2.4-2-2.4s-2,0.7-2,2.4V174.2z"/>
<path class="st1" d="M225.8,155.3c3.7,0,5.6,2.2,5.6,6.1v0.8h-3.6v-1c0-1.7-0.7-2.4-1.9-2.4s-1.9,0.7-1.9,2.4s0.8,3.1,3.3,5.3
	c3.2,2.8,4.2,4.8,4.2,7.6c0,3.9-1.9,6.1-5.7,6.1s-5.7-2.2-5.7-6.1v-1.5h3.6v1.7c0,1.7,0.8,2.4,2,2.4s2-0.6,2-2.4s-0.8-3.1-3.3-5.3
	c-3.2-2.8-4.2-4.8-4.2-7.6C220.2,157.5,222.1,155.3,225.8,155.3z"/>
<linearGradient id="SVGID_2_" gradientUnits="userSpaceOnUse" x1="-308.18" y1="230.4959" x2="280.29" y2="230.4959" gradientTransform="matrix(1 0 0 -1 0 288.7717)">
	<stop  offset="0" style="stop-color:#13226F"/>
	<stop  offset="0.26" style="stop-color:#13226F"/>
	<stop  offset="0.99" style="stop-color:#B21E1C"/>
	<stop  offset="1" style="stop-color:#B21E1C"/>
</linearGradient>
<path class="st2" d="M278.1,92.3L229.5,8.1c-2.9-5-8.2-8.1-14-8.1H67c-5.8,0-11.1,3.1-14,8.1L18.7,67.5c-4.2,7.4-2,16.7,5.1,21.4
	l0.3,0.2c7.4,4.8,17.3,2.8,22.1-4.6c0.2-0.2,0.3-0.5,0.5-0.7l25-43.3c2.9-5,8.2-8.1,14-8.1h111.2c5.8,0,11.1,3.1,14,8.1l39.3,68.1
	c4.5,7.7,14.3,10.4,22.1,5.9c2.5-1.4,4.5-3.5,5.9-5.9l0,0C281.1,103.4,281,97.3,278.1,92.3z"/>
</svg>
