<?xml version="1.0" encoding="utf-8"?>
<!-- Generator: Adobe Illustrator 22.0.1, SVG Export Plug-In . SVG Version: 6.00 Build 0)  -->
<svg version="1.0" id="Capa_1" xmlns="http://www.w3.org/2000/svg" xmlns:xlink="http://www.w3.org/1999/xlink" x="0px" y="0px"
	 viewBox="0 0 348.3 289.6" style="enable-background:new 0 0 348.3 289.6;" xml:space="preserve">
<style type="text/css">
	.st0{fill:url(#SVGID_1_);}
	.st1{fill:#606060;}
</style>
<title>proyecto1</title>
<linearGradient id="SVGID_1_" gradientUnits="userSpaceOnUse" x1="-3.999397e-04" y1="143.9667" x2="591.2396" y2="143.9667" gradientTransform="matrix(1 0 0 -1 0 288.7717)">
	<stop  offset="0" style="stop-color:#13226F"/>
	<stop  offset="0.26" style="stop-color:#13226F"/>
	<stop  offset="0.99" style="stop-color:#B21E1C"/>
	<stop  offset="1" style="stop-color:#B21E1C"/>
</linearGradient>
<path class="st0" d="M340.7,98.3c-7.4-4.8-17.3-2.7-22.1,4.8c-0.1,0.2-0.3,0.4-0.4,0.7c-31.1,54-67.1,116.2-83.9,145.4
	c-2.9,5-8.2,8.1-14,8.1H109.1c-5.8,0-11.1-3.1-14-8.1l-55.6-96.3c-2.9-5-2.9-11.2,0-16.2l55.6-96.3c2.9-5,8.2-8.1,14-8.1h111.2
	c5.8,0,11.1,3.1,14,8.1l39.2,67.9c4.4,7.7,14.3,10.4,22,6c2.5-1.4,4.5-3.5,6-6l0,0c2.9-5,2.9-11.1,0-16.1L253,8.1
	c-2.9-5-8.2-8.1-14-8.1H90.4c-5.8,0-11.1,3.1-14,8.1L2.2,136.7c-2.9,5-2.9,11.2,0,16.2l74.3,128.6c2.9,5,8.2,8.1,14,8.1h148.5
	c5.8,0,11.1-3.1,14-8.1c12.8-22.1,23.8-41.1,93.3-161.5c4.3-7.4,2-16.8-5.2-21.5L340.7,98.3z"/>
<g>
	<g>
		<path class="st1" d="M61.7,131.8H67v3.5h-5.2v7.1h6.6v3.5H57.9v-24.2h10.4v3.5h-6.6V131.8z"/>
		<path class="st1" d="M75.8,121.3c3.7,0,5.6,2.2,5.6,6.1v0.8h-3.6v-1c0-1.7-0.7-2.4-1.9-2.4c-1.2,0-1.9,0.7-1.9,2.4
			c0,1.8,0.8,3.1,3.3,5.3c3.2,2.8,4.2,4.8,4.2,7.6c0,3.9-1.9,6.1-5.7,6.1s-5.7-2.2-5.7-6.1v-1.5h3.6v1.7c0,1.7,0.8,2.4,2,2.4
			c1.2,0,2-0.6,2-2.4c0-1.8-0.8-3.1-3.3-5.3c-3.2-2.8-4.2-4.8-4.2-7.6C70.2,123.5,72.1,121.3,75.8,121.3z"/>
		<path class="st1" d="M82.5,121.6h11.8v3.5h-4v20.8h-3.8V125h-4V121.6z"/>
		<path class="st1" d="M99.6,121.6v18.7c0,1.7,0.8,2.4,2,2.4c1.2,0,2-0.6,2-2.4v-18.7h3.6V140c0,3.9-1.9,6.1-5.7,6.1
			s-5.7-2.2-5.7-6.1v-18.4H99.6z"/>
		<path class="st1" d="M109.7,121.6h6c3.8,0,5.7,2.1,5.7,6v12.3c0,3.9-1.9,6-5.7,6h-6V121.6z M113.5,125v17.3h2.1
			c1.2,0,1.9-0.6,1.9-2.4v-12.6c0-1.7-0.7-2.4-1.9-2.4H113.5z"/>
		<path class="st1" d="M123.8,121.6h3.8v24.2h-3.8V121.6z"/>
		<path class="st1" d="M130.1,127.4c0-3.9,2-6.1,5.8-6.1c3.7,0,5.8,2.2,5.8,6.1V140c0,3.9-2,6.1-5.8,6.1c-3.7,0-5.8-2.2-5.8-6.1
			V127.4z M133.9,140.2c0,1.7,0.8,2.4,2,2.4c1.2,0,2-0.7,2-2.4v-13.1c0-1.7-0.8-2.4-2-2.4c-1.2,0-2,0.7-2,2.4V140.2z"/>
		<path class="st1" d="M149.5,121.6h6c3.8,0,5.7,2.1,5.7,6v12.3c0,3.9-1.9,6-5.7,6h-6V121.6z M153.3,125v17.3h2.1
			c1.2,0,1.9-0.6,1.9-2.4v-12.6c0-1.7-0.7-2.4-1.9-2.4H153.3z"/>
		<path class="st1" d="M167.4,131.8h5.2v3.5h-5.2v7.1h6.6v3.5h-10.4v-24.2H174v3.5h-6.6V131.8z"/>
		<path class="st1" d="M194,145.8h-3.8l-0.7-4.4h-4.7l-0.7,4.4h-3.5l3.9-24.2h5.6L194,145.8z M185.3,138.1h3.7l-1.8-12.3h-0.1
			L185.3,138.1z"/>
		<path class="st1" d="M206.8,136.7v3.2c0,3.9-1.9,6.1-5.7,6.1c-3.7,0-5.7-2.2-5.7-6.1v-12.6c0-3.9,1.9-6.1,5.7-6.1
			c3.7,0,5.7,2.2,5.7,6.1v2.4h-3.6v-2.6c0-1.7-0.8-2.4-2-2.4c-1.2,0-2,0.7-2,2.4v13.1c0,1.7,0.8,2.4,2,2.4c1.2,0,2-0.6,2-2.4v-3.5
			H206.8z"/>
		<path class="st1" d="M212.7,121.6v18.7c0,1.7,0.8,2.4,2,2.4c1.2,0,2-0.6,2-2.4v-18.7h3.6V140c0,3.9-1.9,6.1-5.7,6.1
			s-5.7-2.2-5.7-6.1v-18.4H212.7z"/>
		<path class="st1" d="M226.7,131.8h5.2v3.5h-5.2v7.1h6.6v3.5h-10.4v-24.2h10.4v3.5h-6.6V131.8z"/>
		<path class="st1" d="M243.6,145.8c-0.2-0.6-0.3-1-0.3-3V139c0-2.2-0.8-3.1-2.5-3.1h-1.3v9.9h-3.8v-24.2h5.7c3.9,0,5.6,1.8,5.6,5.6
			v1.9c0,2.5-0.8,4.1-2.5,4.9v0.1c1.9,0.8,2.5,2.6,2.5,5.1v3.7c0,1.2,0,2,0.4,2.9H243.6z M239.4,125v7.4h1.5c1.4,0,2.3-0.6,2.3-2.6
			v-2.4c0-1.7-0.6-2.5-1.9-2.5H239.4z"/>
		<path class="st1" d="M249.5,121.6h6c3.8,0,5.7,2.1,5.7,6v12.3c0,3.9-1.9,6-5.7,6h-6V121.6z M253.3,125v17.3h2.1
			c1.2,0,1.9-0.6,1.9-2.4v-12.6c0-1.7-0.7-2.4-1.9-2.4H253.3z"/>
		<path class="st1" d="M263.3,127.4c0-3.9,2-6.1,5.8-6.1c3.7,0,5.8,2.2,5.8,6.1V140c0,3.9-2,6.1-5.8,6.1c-3.7,0-5.8-2.2-5.8-6.1
			V127.4z M267.1,140.2c0,1.7,0.8,2.4,2,2.4c1.2,0,2-0.7,2-2.4v-13.1c0-1.7-0.8-2.4-2-2.4c-1.2,0-2,0.7-2,2.4V140.2z"/>
		<path class="st1" d="M105.8,180.8H102l-0.7-4.4h-4.7l-0.7,4.4h-3.5l3.9-24.2h5.6L105.8,180.8z M97.1,173.1h3.7L99,160.8h-0.1
			L97.1,173.1z"/>
		<path class="st1" d="M112.9,156.6h3.8v20.8h6.3v3.5h-10.1V156.6z"/>
		<path class="st1" d="M137,180.8h-3.8l-0.7-4.4h-4.7l-0.7,4.4h-3.5l3.9-24.2h5.6L137,180.8z M128.3,173.1h3.7l-1.8-12.3h-0.1
			L128.3,173.1z"/>
		<path class="st1" d="M147.6,163.2L147.6,163.2l-0.1,17.5h-3.4v-24.2h4.8l3.8,14.5h0.1v-14.5h3.4v24.2h-3.9L147.6,163.2z"/>
		<path class="st1" d="M158.6,162.4c0-3.9,2-6.1,5.8-6.1c3.7,0,5.8,2.2,5.8,6.1V175c0,3.9-2,6.1-5.8,6.1c-3.7,0-5.8-2.2-5.8-6.1
			V162.4z M162.4,175.2c0,1.7,0.8,2.4,2,2.4c1.2,0,2-0.7,2-2.4v-13.1c0-1.7-0.8-2.4-2-2.4c-1.2,0-2,0.7-2,2.4V175.2z"/>
		<path class="st1" d="M180.6,173.8L180.6,173.8l2.6-17.2h5.3v24.2H185v-17.4h-0.1l-2.6,17.4h-3.6l-2.8-17.1h-0.1v17.1h-3.3v-24.2
			h5.3L180.6,173.8z"/>
		<path class="st1" d="M191.1,166.9h6.9v3.5h-6.9V166.9z"/>
		<path class="st1" d="M205.7,162.4c0-3.9,2-6.1,5.8-6.1c3.7,0,5.8,2.2,5.8,6.1V175c0,3.9-2,6.1-5.8,6.1c-3.7,0-5.8-2.2-5.8-6.1
			V162.4z M209.5,175.2c0,1.7,0.8,2.4,2,2.4c1.2,0,2-0.7,2-2.4v-13.1c0-1.7-0.8-2.4-2-2.4c-1.2,0-2,0.7-2,2.4V175.2z"/>
		<path class="st1" d="M219.4,162.4c0-3.9,2-6.1,5.8-6.1c3.7,0,5.8,2.2,5.8,6.1V175c0,3.9-2,6.1-5.8,6.1c-3.7,0-5.8-2.2-5.8-6.1
			V162.4z M223.2,175.2c0,1.7,0.8,2.4,2,2.4c1.2,0,2-0.7,2-2.4v-13.1c0-1.7-0.8-2.4-2-2.4c-1.2,0-2,0.7-2,2.4V175.2z"/>
		<path class="st1" d="M239,159.7c-1.2,0-2,0.7-2,2.4v2.6h-3.6v-2.4c0-3.9,1.9-6.1,5.7-6.1c3.7,0,5.7,2.2,5.7,6.1
			c0,3.2-1.2,5.8-4.7,9.6c-2.2,2.4-2.9,3.6-2.9,4.8c0,0.2,0,0.3,0,0.5h7.2v3.5h-11v-3c0-2.7,1-4.7,3.8-7.7c2.9-3.1,3.7-5,3.7-7.6
			C241,160.3,240.2,159.7,239,159.7z"/>
	</g>
</g>
<g>
	<path class="st1" d="M105.1,197h3.4c2.8,0,4.7,1.9,4.7,4.4v0c0,2.5-1.9,4.4-4.7,4.4h-3.4V197z M108.5,204.1c1.6,0,2.7-1.1,2.7-2.6
		v0c0-1.6-1.1-2.7-2.7-2.7H107v5.3H108.5z"/>
	<path class="st1" d="M114.4,202.5L114.4,202.5c0-2,1.4-3.5,3.3-3.5c2.3,0,3.3,1.8,3.3,3.7c0,0.2,0,0.3,0,0.5h-4.7
		c0.2,0.9,0.8,1.3,1.7,1.3c0.6,0,1.1-0.2,1.6-0.7l1.1,1c-0.6,0.8-1.5,1.3-2.8,1.3C115.9,206,114.4,204.6,114.4,202.5z M119.2,202
		c-0.1-0.9-0.6-1.4-1.4-1.4c-0.8,0-1.3,0.6-1.5,1.4H119.2z"/>
	<path class="st1" d="M122.8,204v-3.2H122v-1.6h0.8v-1.7h1.9v1.7h1.6v1.6h-1.6v2.9c0,0.4,0.2,0.7,0.6,0.7c0.4,0,0.7-0.1,0.9-0.2v1.5
		c-0.4,0.2-0.9,0.4-1.5,0.4C123.6,206,122.8,205.5,122.8,204z"/>
	<path class="st1" d="M127.2,202.5L127.2,202.5c0-2,1.4-3.5,3.3-3.5c2.3,0,3.3,1.8,3.3,3.7c0,0.2,0,0.3,0,0.5h-4.7
		c0.2,0.9,0.8,1.3,1.7,1.3c0.6,0,1.1-0.2,1.6-0.7l1.1,1c-0.6,0.8-1.5,1.3-2.8,1.3C128.7,206,127.2,204.6,127.2,202.5z M132,202
		c-0.1-0.9-0.6-1.4-1.4-1.4c-0.8,0-1.3,0.6-1.5,1.4H132z"/>
	<path class="st1" d="M135.2,199.1h1.9v1.4c0.4-0.9,1-1.5,2.2-1.5v2h-0.1c-1.3,0-2.1,0.8-2.1,2.4v2.5h-1.9V199.1z"/>
	<path class="st1" d="M140.5,199.1h1.9v1c0.4-0.6,1-1.1,2-1.1c0.9,0,1.6,0.4,1.9,1.1c0.6-0.7,1.3-1.1,2.2-1.1c1.4,0,2.3,0.9,2.3,2.5
		v4.4h-1.9v-3.8c0-0.9-0.4-1.4-1.1-1.4s-1.2,0.5-1.2,1.4v3.8h-1.9v-3.8c0-0.9-0.4-1.4-1.1-1.4s-1.2,0.5-1.2,1.4v3.8h-1.9V199.1z"/>
	<path class="st1" d="M152.5,196.7h2v1.7h-2V196.7z M152.6,199.1h1.9v6.8h-1.9V199.1z"/>
	<path class="st1" d="M156.3,199.1h1.9v1c0.4-0.6,1-1.1,2-1.1c1.5,0,2.3,1,2.3,2.5v4.4h-1.9v-3.8c0-0.9-0.4-1.4-1.2-1.4
		s-1.2,0.5-1.2,1.4v3.8h-1.9V199.1z"/>
	<path class="st1" d="M163.8,203.9L163.8,203.9c0-1.5,1.1-2.2,2.7-2.2c0.7,0,1.2,0.1,1.7,0.3v-0.1c0-0.8-0.5-1.2-1.5-1.2
		c-0.7,0-1.2,0.1-1.9,0.4l-0.5-1.5c0.7-0.3,1.5-0.5,2.6-0.5c1,0,1.8,0.3,2.3,0.8c0.5,0.5,0.7,1.2,0.7,2.2v3.9h-1.9v-0.7
		c-0.5,0.5-1.1,0.9-2,0.9C164.8,206,163.8,205.3,163.8,203.9z M168.2,203.5v-0.3c-0.3-0.2-0.8-0.3-1.2-0.3c-0.8,0-1.3,0.3-1.3,0.9v0
		c0,0.5,0.4,0.8,1,0.8C167.6,204.7,168.2,204.2,168.2,203.5z"/>
	<path class="st1" d="M171.3,202.5L171.3,202.5c0-2,1.5-3.5,3.5-3.5c1.3,0,2.1,0.4,2.7,1.1l-1.2,1.3c-0.4-0.5-0.9-0.7-1.5-0.7
		c-1,0-1.6,0.8-1.6,1.8v0c0,1,0.7,1.9,1.7,1.9c0.6,0,1.1-0.3,1.6-0.7l1.1,1.1c-0.7,0.7-1.4,1.2-2.8,1.2
		C172.8,206,171.3,204.5,171.3,202.5z"/>
	<path class="st1" d="M178.9,196.7h2v1.7h-2V196.7z M178.9,199.1h1.9v6.8h-1.9V199.1z"/>
	<path class="st1" d="M182.3,202.5L182.3,202.5c0-2,1.6-3.5,3.7-3.5c2.1,0,3.6,1.6,3.6,3.5v0c0,1.9-1.6,3.5-3.7,3.5
		C183.9,206,182.3,204.5,182.3,202.5z M187.7,202.5L187.7,202.5c0-1-0.7-1.9-1.8-1.9c-1.1,0-1.8,0.8-1.8,1.8v0c0,1,0.7,1.9,1.8,1.9
		C187.1,204.4,187.7,203.5,187.7,202.5z M186.6,196.1l1.7,0.7l-1.6,1.5h-1.4L186.6,196.1z"/>
	<path class="st1" d="M191,199.1h1.9v1c0.4-0.6,1-1.1,2-1.1c1.5,0,2.3,1,2.3,2.5v4.4h-1.9v-3.8c0-0.9-0.4-1.4-1.2-1.4
		c-0.7,0-1.2,0.5-1.2,1.4v3.8H191V199.1z"/>
	<path class="st1" d="M202.7,199.1h1.9v1c0.5-0.6,1.1-1.1,2.1-1.1c1.6,0,3.1,1.2,3.1,3.5v0c0,2.3-1.5,3.5-3.1,3.5
		c-1,0-1.7-0.5-2.1-1v2.9h-1.9V199.1z M207.9,202.5L207.9,202.5c0-1.1-0.8-1.9-1.7-1.9c-0.9,0-1.6,0.7-1.6,1.9v0
		c0,1.1,0.7,1.9,1.6,1.9C207.1,204.4,207.9,203.6,207.9,202.5z"/>
	<path class="st1" d="M210.8,203.9L210.8,203.9c0-1.5,1.1-2.2,2.7-2.2c0.7,0,1.2,0.1,1.7,0.3v-0.1c0-0.8-0.5-1.2-1.5-1.2
		c-0.7,0-1.2,0.1-1.9,0.4l-0.5-1.5c0.7-0.3,1.5-0.5,2.6-0.5c1,0,1.8,0.3,2.3,0.8c0.5,0.5,0.7,1.2,0.7,2.2v3.9h-1.9v-0.7
		c-0.5,0.5-1.1,0.9-2,0.9C211.8,206,210.8,205.3,210.8,203.9z M215.2,203.5v-0.3c-0.3-0.2-0.8-0.3-1.2-0.3c-0.8,0-1.3,0.3-1.3,0.9v0
		c0,0.5,0.4,0.8,1,0.8C214.6,204.7,215.2,204.2,215.2,203.5z"/>
	<path class="st1" d="M218.6,199.1h1.9v1.4c0.4-0.9,1-1.5,2.2-1.5v2h-0.1c-1.3,0-2.1,0.8-2.1,2.4v2.5h-1.9V199.1z"/>
	<path class="st1" d="M223.2,203.9L223.2,203.9c0-1.5,1.1-2.2,2.7-2.2c0.7,0,1.2,0.1,1.7,0.3v-0.1c0-0.8-0.5-1.2-1.5-1.2
		c-0.7,0-1.2,0.1-1.9,0.4l-0.5-1.5c0.7-0.3,1.5-0.5,2.6-0.5c1,0,1.8,0.3,2.3,0.8c0.5,0.5,0.7,1.2,0.7,2.2v3.9h-1.9v-0.7
		c-0.5,0.5-1.1,0.9-2,0.9C224.2,206,223.2,205.3,223.2,203.9z M227.6,203.5v-0.3c-0.3-0.2-0.8-0.3-1.2-0.3c-0.8,0-1.3,0.3-1.3,0.9v0
		c0,0.5,0.4,0.8,1,0.8C227,204.7,227.6,204.2,227.6,203.5z"/>
	<path class="st1" d="M112.6,211.8h1.9v9.2h-1.9V211.8z"/>
	<path class="st1" d="M116,217.7L116,217.7c0-2,1.6-3.5,3.7-3.5c2.1,0,3.6,1.6,3.6,3.5v0c0,1.9-1.6,3.5-3.7,3.5
		C117.6,221.2,116,219.6,116,217.7z M121.5,217.7L121.5,217.7c0-1-0.7-1.9-1.8-1.9c-1.1,0-1.8,0.8-1.8,1.8v0c0,1,0.7,1.9,1.8,1.9
		C120.8,219.5,121.5,218.7,121.5,217.7z"/>
	<path class="st1" d="M124.2,220.1l0.8-1.3c0.7,0.5,1.5,0.8,2.1,0.8c0.6,0,0.8-0.2,0.8-0.5v0c0-0.4-0.7-0.6-1.4-0.8
		c-0.9-0.3-2-0.7-2-2v0c0-1.4,1.1-2.1,2.5-2.1c0.9,0,1.8,0.3,2.5,0.8l-0.7,1.3c-0.7-0.4-1.3-0.6-1.8-0.6c-0.5,0-0.7,0.2-0.7,0.5v0
		c0,0.4,0.6,0.6,1.4,0.8c0.9,0.3,2,0.8,2,2v0c0,1.5-1.1,2.2-2.6,2.2C126.2,221.1,125.1,220.8,124.2,220.1z"/>
	<path class="st1" d="M135.1,212.2h4c1.1,0,2,0.3,2.6,0.9c0.5,0.5,0.8,1.2,0.8,2v0c0,1.4-0.8,2.3-1.9,2.7l2.2,3.2h-2.3l-1.9-2.8H137
		v2.8h-1.9V212.2z M139,216.5c0.9,0,1.5-0.5,1.5-1.2v0c0-0.8-0.6-1.3-1.5-1.3H137v2.5H139z"/>
	<path class="st1" d="M143.6,219.7l1.1-1.4c0.8,0.7,1.6,1.1,2.6,1.1c0.8,0,1.3-0.3,1.3-0.8v0c0-0.5-0.3-0.7-1.8-1.1
		c-1.8-0.5-2.9-0.9-2.9-2.7v0c0-1.6,1.3-2.7,3.1-2.7c1.3,0,2.4,0.4,3.3,1.1l-1,1.5c-0.8-0.5-1.6-0.9-2.3-0.9s-1.1,0.3-1.1,0.8v0
		c0,0.6,0.4,0.8,1.9,1.2c1.8,0.5,2.8,1.1,2.8,2.6v0c0,1.8-1.3,2.7-3.2,2.7C146,221.1,144.6,220.7,143.6,219.7z"/>
	<path class="st1" d="M152.2,212.2h3.6c2.1,0,3.4,1.2,3.4,3.1v0c0,2-1.6,3.1-3.6,3.1h-1.5v2.7h-1.9V212.2z M155.7,216.6
		c1,0,1.5-0.6,1.5-1.3v0c0-0.9-0.6-1.3-1.6-1.3h-1.5v2.7H155.7z"/>
	<path class="st1" d="M164.5,212.2h1.8l4.1,5.4v-5.4h1.9v8.8h-1.7l-4.3-5.6v5.6h-1.9V212.2z"/>
	<path class="st1" d="M174,216.6L174,216.6c0-2.5,2-4.6,4.7-4.6s4.7,2,4.7,4.5v0c0,2.5-2,4.6-4.7,4.6S174,219.1,174,216.6z
		 M181.4,216.6L181.4,216.6c0-1.5-1.1-2.8-2.7-2.8s-2.7,1.2-2.7,2.8v0c0,1.5,1.1,2.8,2.7,2.8C180.3,219.4,181.4,218.1,181.4,216.6z"
		/>
	<path class="st1" d="M185.1,212.2h2.1l2.3,3.7l2.3-3.7h2.1v8.8H192v-5.8l-2.5,3.8h-0.1l-2.5-3.7v5.7h-1.9V212.2z"/>
	<path class="st1" d="M195.7,216.2h3.9v1.8h-3.9V216.2z"/>
	<path class="st1" d="M200.9,216.6L200.9,216.6c0-2.6,1.6-4.6,3.9-4.6c2.3,0,3.9,2,3.9,4.5v0c0,2.6-1.6,4.6-3.9,4.6
		C202.4,221.2,200.9,219.2,200.9,216.6z M206.7,216.6L206.7,216.6c0-1.6-0.8-2.8-1.9-2.8c-1.2,0-1.9,1.2-1.9,2.8v0
		c0,1.6,0.8,2.8,1.9,2.8C206,219.4,206.7,218.2,206.7,216.6z"/>
	<path class="st1" d="M209.9,219.5l2.9-2.4c1.1-0.9,1.5-1.4,1.5-2.1c0-0.7-0.5-1.1-1.2-1.1c-0.7,0-1.1,0.4-1.8,1.2l-1.4-1.1
		c0.9-1.2,1.7-1.8,3.3-1.8c1.8,0,3,1.1,3,2.7v0c0,1.5-0.8,2.2-2.3,3.4l-1.4,1.1h3.8v1.7h-6.5V219.5z"/>
	<path class="st1" d="M217.8,216.6L217.8,216.6c0-2.6,1.6-4.6,3.9-4.6c2.3,0,3.9,2,3.9,4.5v0c0,2.6-1.6,4.6-3.9,4.6
		C219.3,221.2,217.8,219.2,217.8,216.6z M223.7,216.6L223.7,216.6c0-1.6-0.8-2.8-1.9-2.8c-1.2,0-1.9,1.2-1.9,2.8v0
		c0,1.6,0.8,2.8,1.9,2.8C222.9,219.4,223.7,218.2,223.7,216.6z"/>
</g>
</svg>
