<svg xmlns="http://www.w3.org/2000/svg" xmlns:xlink="http://www.w3.org/1999/xlink" viewBox="0 0 303.59 289.56"><defs><style>.cls-1{fill:#606060;}.cls-2{fill:url(#linear-gradient);}</style><linearGradient id="linear-gradient" x1="-297.13" y1="144.78" x2="303.59" y2="144.78" gradientUnits="userSpaceOnUse"><stop offset="0" stop-color="#13226f"/><stop offset="0.26" stop-color="#13226f"/><stop offset="0.99" stop-color="#b21e1c"/><stop offset="1" stop-color="#b21e1c"/></linearGradient></defs><title>proyecto3</title><g id="Capa_2" data-name="Capa 2"><g id="Layer_1" data-name="Layer 1"><path class="cls-1" d="M109.48,103.54v3.15c0,3.88-1.87,6-5.68,6H102v9.1H98.2V97.56h5.6C107.61,97.56,109.48,99.67,109.48,103.54ZM102,101v8.2h1.8c1.21,0,1.87-.56,1.87-2.29V103.3c0-1.73-.66-2.28-1.87-2.28Z"/><path class="cls-1" d="M111.24,97.56h3.81v20.76h6.26v3.46H111.24Z"/><path class="cls-1" d="M135.29,121.78h-3.84l-.66-4.39h-4.67l-.66,4.39H122l3.88-24.22h5.57Zm-8.68-7.68h3.67l-1.8-12.25h-.07Z"/><path class="cls-1" d="M140.52,104.23h-.07v17.55H137V97.56h4.78l3.84,14.5h.07V97.56h3.39v24.22h-3.91Z"/><path class="cls-1" d="M157.2,97.56h6c3.81,0,5.67,2.11,5.67,6v12.25c0,3.88-1.86,6-5.67,6h-6ZM161,101v17.3h2.15c1.21,0,1.94-.62,1.94-2.35v-12.6c0-1.73-.73-2.35-1.94-2.35Z"/><path class="cls-1" d="M175.12,107.76h5.23v3.47h-5.23v7.09h6.58v3.46H171.32V97.56H181.7V101h-6.58Z"/><path class="cls-1" d="M76.9,147.75V151c0,3.87-1.94,6.09-5.68,6.09s-5.67-2.22-5.67-6.09v-12.6c0-3.88,1.94-6.09,5.67-6.09s5.68,2.21,5.68,6.09v2.35H73.3v-2.59c0-1.73-.76-2.39-2-2.39s-2,.66-2,2.39v13.08c0,1.73.76,2.35,2,2.35s2-.62,2-2.35v-3.46Z"/><path class="cls-1" d="M78.9,138.37c0-3.88,2-6.09,5.78-6.09s5.78,2.21,5.78,6.09V151c0,3.87-2,6.09-5.78,6.09S78.9,154.84,78.9,151Zm3.81,12.84c0,1.73.76,2.39,2,2.39s2-.66,2-2.39V138.13c0-1.73-.76-2.39-2-2.39s-2,.66-2,2.39Z"/><path class="cls-1" d="M96.38,139.23h-.07v17.55H92.88V132.56h4.78l3.84,14.5h.07v-14.5H105v24.22h-3.91Z"/><path class="cls-1" d="M106.59,132.56h11.76V136h-4v20.76h-3.8V136h-4Z"/><path class="cls-1" d="M120,132.56h3.8v24.22H120Z"/><path class="cls-1" d="M130.05,139.23H130v17.55h-3.43V132.56h4.78l3.84,14.5h.07v-14.5h3.39v24.22h-3.91Z"/><path class="cls-1" d="M147.08,143.28h5.32V151c0,3.87-1.93,6.09-5.67,6.09s-5.68-2.22-5.68-6.09v-12.6c0-3.88,1.94-6.09,5.68-6.09s5.67,2.21,5.67,6.09v2.35h-3.59v-2.59c0-1.73-.77-2.39-2-2.39s-2,.66-2,2.39v13.08c0,1.73.76,2.35,2,2.35s2-.62,2-2.35v-4.47h-1.73Z"/><path class="cls-1" d="M158.67,142.76h5.22v3.46h-5.22v7.1h6.57v3.46H154.86V132.56h10.38V136h-6.57Z"/><path class="cls-1" d="M171.06,139.23H171v17.55h-3.43V132.56h4.78l3.84,14.5h.07v-14.5h3.39v24.22h-3.91Z"/><path class="cls-1" d="M193.41,147.75V151c0,3.87-1.94,6.09-5.67,6.09s-5.68-2.22-5.68-6.09v-12.6c0-3.88,1.94-6.09,5.68-6.09s5.67,2.21,5.67,6.09v2.35h-3.6v-2.59c0-1.73-.76-2.39-2-2.39s-2,.66-2,2.39v13.08c0,1.73.76,2.35,2,2.35s2-.62,2-2.35v-3.46Z"/><path class="cls-1" d="M195.73,132.56h3.81v24.22h-3.81Z"/><path class="cls-1" d="M214.62,156.78h-3.84l-.66-4.4h-4.67l-.65,4.4h-3.5l3.88-24.22h5.57Zm-8.68-7.68h3.67l-1.8-12.25h-.07Z"/><path class="cls-1" d="M97.24,191.78H93.4l-.65-4.4H88.07l-.65,4.4h-3.5l3.88-24.22h5.57Zm-8.68-7.68h3.67l-1.8-12.25h-.07Z"/><path class="cls-1" d="M107,184.76h.07l2.56-17.2H115v24.22h-3.6V174.41h-.07l-2.56,17.37h-3.6l-2.76-17.13h-.07v17.13H99V167.56h5.3Z"/><path class="cls-1" d="M129.12,173.13V174c0,2.49-.76,4-2.46,4.85v.07c2,.79,2.84,2.59,2.84,5.15v2c0,3.73-2,5.74-5.78,5.74h-6V167.56h5.75C127.42,167.56,129.12,169.39,129.12,173.13ZM121.54,171v6.4H123c1.41,0,2.28-.62,2.28-2.56v-1.35c0-1.73-.59-2.49-1.94-2.49Zm0,9.86v7.44h2.18c1.28,0,2-.59,2-2.39v-2.11c0-2.25-.73-2.94-2.46-2.94Z"/><path class="cls-1" d="M131.78,167.56h3.81v24.22h-3.81Z"/><path class="cls-1" d="M142.16,177.76h5.23v3.47h-5.23v7.09h6.58v3.46H138.36V167.56h10.38V171h-6.58Z"/><path class="cls-1" d="M154.55,174.23h-.07v17.55h-3.43V167.56h4.78l3.84,14.5h.07v-14.5h3.39v24.22h-3.91Z"/><path class="cls-1" d="M164.76,167.56h11.76V171h-4v20.76h-3.8V171h-4Z"/><path class="cls-1" d="M189.19,191.78h-3.84l-.66-4.4H180l-.66,4.4h-3.49l3.87-24.22h5.57Zm-8.69-7.68h3.67l-1.8-12.25h-.07Z"/><path class="cls-1" d="M191,167.56h3.81v20.76H201v3.46H191Z"/><path class="cls-2" d="M301.42,136.7,227.17,8.08a16.16,16.16,0,0,0-14-8.08H64.65a16.16,16.16,0,0,0-14,8.08L20.75,59.88a16,16,0,0,0,4.56,21l.26.18a16,16,0,0,0,23.15-5L69.32,40.4a16.15,16.15,0,0,1,14-8.08H194.52a16.14,16.14,0,0,1,14,8.07l55.61,96.31a16.14,16.14,0,0,1,0,16.16L208.5,249.17a16.14,16.14,0,0,1-14,8.07H83.31a16.17,16.17,0,0,1-14-8.07L30.15,181.31a16.15,16.15,0,0,0-28,0h0a16.19,16.19,0,0,0,0,16.12l48.5,84a16.16,16.16,0,0,0,14,8.08H213.18a16.16,16.16,0,0,0,14-8.08l74.25-128.62A16.14,16.14,0,0,0,301.42,136.7Z"/></g></g></svg>