<svg xmlns="http://www.w3.org/2000/svg" xmlns:xlink="http://www.w3.org/1999/xlink" viewBox="0 0 348.32 289.56"><defs><style>.cls-1{fill:url(#linear-gradient);}.cls-2{fill:#606060;}</style><linearGradient id="linear-gradient" y1="144.78" x2="591.24" y2="144.78" gradientUnits="userSpaceOnUse"><stop offset="0" stop-color="#13226f"/><stop offset="0.26" stop-color="#13226f"/><stop offset="0.99" stop-color="#b21e1c"/><stop offset="1" stop-color="#b21e1c"/></linearGradient></defs><title>proyecto1</title><g id="Capa_2" data-name="Capa 2"><g id="Layer_1" data-name="Layer 1"><path class="cls-1" d="M340.73,98.33a16,16,0,0,0-22.53,5.44c-31.14,54-67.1,116.24-83.94,145.4a16.14,16.14,0,0,1-14,8.07H109.07a16.17,16.17,0,0,1-14-8.07L39.47,152.86a16.14,16.14,0,0,1,0-16.16L95.08,40.39a16.17,16.17,0,0,1,14-8.07h111.2a16.16,16.16,0,0,1,14,8.07l39.18,67.86a16.14,16.14,0,0,0,28,0h0a16.14,16.14,0,0,0,0-16.12l-48.5-84a16.13,16.13,0,0,0-14-8.08H90.41a16.15,16.15,0,0,0-14,8.08L2.16,136.7a16.19,16.19,0,0,0,0,16.16L76.42,281.48a16.15,16.15,0,0,0,14,8.08H238.94a16.13,16.13,0,0,0,14-8.08c12.76-22.09,23.76-41.13,93.26-161.53A16,16,0,0,0,341,98.5Z"/><path class="cls-2" d="M89.73,144.78H85.88l-.65-4.4H80.55l-.65,4.4H76.4l3.88-24.22h5.57ZM81,137.1h3.67l-1.8-12.25h-.07Z"/><path class="cls-2" d="M89.07,120.56h11.76V124h-4v20.76h-3.8V124h-4Z"/><path class="cls-2" d="M102.49,120.56h3.81v20.76h6.27v3.46H102.49Z"/><path class="cls-2" d="M126.54,144.78H122.7l-.65-4.4h-4.68l-.65,4.4h-3.5l3.88-24.22h5.57Zm-8.68-7.68h3.67l-1.8-12.25h-.07Z"/><path class="cls-2" d="M133.43,120.28c3.7,0,5.61,2.21,5.61,6.09v.76h-3.6v-1c0-1.73-.69-2.39-1.91-2.39s-1.9.66-1.9,2.39.76,3.08,3.25,5.26c3.19,2.8,4.19,4.81,4.19,7.58,0,3.87-1.94,6.09-5.67,6.09s-5.68-2.22-5.68-6.09v-1.49h3.6v1.73c0,1.73.76,2.35,2,2.35s2-.62,2-2.35-.76-3.08-3.25-5.26c-3.18-2.8-4.19-4.81-4.19-7.58C127.82,122.49,129.73,120.28,133.43,120.28Z"/><path class="cls-2" d="M146.62,120.56h6c3.8,0,5.67,2.11,5.67,6v12.25c0,3.88-1.87,6-5.67,6h-6Zm3.8,3.46v17.3h2.15c1.21,0,1.94-.62,1.94-2.35v-12.6c0-1.73-.73-2.35-1.94-2.35Z"/><path class="cls-2" d="M164.54,130.76h5.23v3.47h-5.23v7.09h6.58v3.46H160.73V120.56h10.39V124h-6.58Z"/><path class="cls-2" d="M186.79,144.78a7.44,7.44,0,0,1-.34-3V138c0-2.25-.77-3.08-2.5-3.08h-1.31v9.86h-3.81V120.56h5.75c3.94,0,5.64,1.83,5.64,5.57V128c0,2.49-.8,4.08-2.49,4.88V133c1.9.8,2.52,2.59,2.52,5.12v3.74a7.15,7.15,0,0,0,.42,2.94ZM182.64,124v7.44h1.49c1.42,0,2.28-.63,2.28-2.56v-2.39c0-1.73-.59-2.49-1.94-2.49Z"/><path class="cls-2" d="M192.74,120.56h3.81v24.22h-3.81Z"/><path class="cls-2" d="M203.12,130.76h5.23v3.47h-5.23v7.09h6.58v3.46H199.32V120.56H209.7V124h-6.58Z"/><path class="cls-2" d="M217.17,120.28c3.71,0,5.61,2.21,5.61,6.09v.76h-3.6v-1c0-1.73-.69-2.39-1.9-2.39s-1.91.66-1.91,2.39.77,3.08,3.26,5.26c3.18,2.8,4.19,4.81,4.19,7.58,0,3.87-1.94,6.09-5.68,6.09s-5.68-2.22-5.68-6.09v-1.49h3.6v1.73c0,1.73.76,2.35,2,2.35s2-.62,2-2.35-.76-3.08-3.26-5.26c-3.18-2.8-4.18-4.81-4.18-7.58C211.57,122.49,213.47,120.28,217.17,120.28Z"/><path class="cls-2" d="M230.7,131.28H236V139c0,3.87-1.93,6.09-5.67,6.09s-5.68-2.22-5.68-6.09v-12.6c0-3.88,1.94-6.09,5.68-6.09s5.67,2.21,5.67,6.09v2.35h-3.59v-2.59c0-1.73-.77-2.39-2-2.39s-2,.66-2,2.39v13.08c0,1.73.76,2.35,2,2.35s2-.62,2-2.35v-4.47H230.7Z"/><path class="cls-2" d="M238.18,126.37c0-3.88,2-6.09,5.78-6.09s5.78,2.21,5.78,6.09V139c0,3.87-2,6.09-5.78,6.09s-5.78-2.22-5.78-6.09ZM242,139.21c0,1.73.76,2.39,2,2.39s2-.66,2-2.39V126.13c0-1.73-.76-2.39-2-2.39s-2,.66-2,2.39Z"/><path class="cls-2" d="M121.16,179.78h-3.84l-.65-4.4H112l-.65,4.4h-3.5l3.88-24.22h5.57Zm-8.68-7.68h3.67l-1.8-12.25h-.07Z"/><path class="cls-2" d="M128.29,155.56h3.81v20.76h6.26v3.46H128.29Z"/><path class="cls-2" d="M152.34,179.78H148.5l-.66-4.4h-4.67l-.65,4.4H139l3.88-24.22h5.57Zm-8.68-7.68h3.67l-1.8-12.25h-.07Z"/><path class="cls-2" d="M164.59,155.28c3.71,0,5.61,2.21,5.61,6.09v.76h-3.6v-1c0-1.73-.69-2.39-1.9-2.39s-1.91.66-1.91,2.39.77,3.08,3.26,5.26c3.18,2.8,4.18,4.81,4.18,7.58,0,3.87-1.93,6.09-5.67,6.09s-5.68-2.22-5.68-6.09v-1.49h3.6v1.73c0,1.73.76,2.35,2,2.35s2-.62,2-2.35-.76-3.08-3.26-5.26c-3.18-2.81-4.18-4.81-4.18-7.58C159,157.49,160.89,155.28,164.59,155.28Z"/><path class="cls-2" d="M184.73,179.78h-3.84l-.66-4.4h-4.67l-.66,4.4h-3.49l3.88-24.22h5.57Zm-8.68-7.68h3.67l-1.8-12.25h-.07Z"/><path class="cls-2" d="M186.5,155.56h3.81v20.76h6.26v3.46H186.5Z"/><path class="cls-2" d="M201.86,155.56v18.68c0,1.73.76,2.36,2,2.36s2-.63,2-2.36V155.56h3.6V174c0,3.88-1.94,6.09-5.68,6.09s-5.67-2.21-5.67-6.09V155.56Z"/><path class="cls-2" d="M212,155.56h6c3.81,0,5.68,2.11,5.68,6v12.25c0,3.88-1.87,6-5.68,6h-6Zm3.81,3.46v17.3H218c1.21,0,1.94-.62,1.94-2.35v-12.6c0-1.73-.73-2.35-1.94-2.35Z"/></g></g></svg>