<?xml version="1.0" encoding="utf-8"?>
<!-- Generator: Adobe Illustrator 22.0.1, SVG Export Plug-In . SVG Version: 6.00 Build 0)  -->
<svg version="1.0" id="Capa_1" xmlns="http://www.w3.org/2000/svg" xmlns:xlink="http://www.w3.org/1999/xlink" x="0px" y="0px"
	 viewBox="0 0 303.6 289.6" style="enable-background:new 0 0 303.6 289.6;" xml:space="preserve">
<style type="text/css">
	.st0{fill:url(#SVGID_1_);}
	.st1{fill:#606060;}
</style>
<title>proyecto3</title>
<linearGradient id="SVGID_1_" gradientUnits="userSpaceOnUse" x1="-297.13" y1="144.0167" x2="303.59" y2="144.0167" gradientTransform="matrix(1 0 0 -1 0 288.7717)">
	<stop  offset="0" style="stop-color:#13226F"/>
	<stop  offset="0.26" style="stop-color:#13226F"/>
	<stop  offset="0.99" style="stop-color:#B21E1C"/>
	<stop  offset="1" style="stop-color:#B21E1C"/>
</linearGradient>
<path class="st0" d="M301.4,136.7L227.2,8.1c-2.9-5-8.2-8.1-14-8.1H64.7c-5.8,0-11.1,3.1-14,8.1L20.8,59.9c-4.1,7.1-2.1,16.2,4.6,21
	l0.3,0.2c7.2,5.1,17.2,3.5,22.3-3.7c0.3-0.4,0.6-0.8,0.8-1.3l20.6-35.7c2.9-5,8.2-8.1,14-8.1h111.2c5.8,0,11.1,3.1,14,8.1l55.6,96.3
	c2.9,5,2.9,11.2,0,16.2l-55.6,96.3c-2.9,5-8.2,8.1-14,8.1H83.3c-5.8,0-11.1-3.1-14-8.1l-39.2-67.9c-4.4-7.7-14.3-10.4-22.1-5.9
	c-2.5,1.4-4.5,3.5-5.9,5.9l0,0c-2.9,5-2.9,11.1,0,16.1l48.5,84c2.9,5,8.2,8.1,14,8.1h148.5c5.8,0,11.1-3.1,14-8.1l74.2-128.6
	C304.3,147.8,304.3,141.7,301.4,136.7z"/>
<g>
	<g>
		<path class="st1" d="M40.2,131.3h4.9v3.5h-4.9v10h-3.8v-24.2h10.1v3.5h-6.3V131.3z"/>
		<path class="st1" d="M60.2,144.8h-3.8l-0.7-4.4H51l-0.7,4.4h-3.5l3.9-24.2h5.6L60.2,144.8z M51.5,137.1h3.7l-1.8-12.3h-0.1
			L51.5,137.1z"/>
		<path class="st1" d="M72.9,135.7v3.2c0,3.9-1.9,6.1-5.7,6.1c-3.7,0-5.7-2.2-5.7-6.1v-12.6c0-3.9,1.9-6.1,5.7-6.1
			c3.7,0,5.7,2.2,5.7,6.1v2.4h-3.6v-2.6c0-1.7-0.8-2.4-2-2.4c-1.2,0-2,0.7-2,2.4v13.1c0,1.7,0.8,2.4,2,2.4c1.2,0,2-0.6,2-2.4v-3.5
			H72.9z"/>
		<path class="st1" d="M74.2,120.5h11.8v3.5h-4v20.8h-3.8V124h-4V120.5z"/>
		<path class="st1" d="M87.3,126.3c0-3.9,2-6.1,5.8-6.1c3.7,0,5.8,2.2,5.8,6.1v12.6c0,3.9-2,6.1-5.8,6.1c-3.7,0-5.8-2.2-5.8-6.1
			V126.3z M91.1,139.2c0,1.7,0.8,2.4,2,2.4c1.2,0,2-0.7,2-2.4v-13.1c0-1.7-0.8-2.4-2-2.4c-1.2,0-2,0.7-2,2.4V139.2z"/>
		<path class="st1" d="M109.2,144.8c-0.2-0.6-0.3-1-0.3-3V138c0-2.2-0.8-3.1-2.5-3.1h-1.3v9.9h-3.8v-24.2h5.7c3.9,0,5.6,1.8,5.6,5.6
			v1.9c0,2.5-0.8,4.1-2.5,4.9v0.1c1.9,0.8,2.5,2.6,2.5,5.1v3.7c0,1.2,0,2,0.4,2.9H109.2z M105.1,124v7.4h1.5c1.4,0,2.3-0.6,2.3-2.6
			v-2.4c0-1.7-0.6-2.5-1.9-2.5H105.1z"/>
		<path class="st1" d="M119,130.7h5.2v3.5H119v7.1h6.6v3.5h-10.4v-24.2h10.4v3.5H119V130.7z"/>
		<path class="st1" d="M133.1,120.3c3.7,0,5.6,2.2,5.6,6.1v0.8h-3.6v-1c0-1.7-0.7-2.4-1.9-2.4c-1.2,0-1.9,0.7-1.9,2.4
			c0,1.8,0.8,3.1,3.3,5.3c3.2,2.8,4.2,4.8,4.2,7.6c0,3.9-1.9,6.1-5.7,6.1s-5.7-2.2-5.7-6.1v-1.5h3.6v1.7c0,1.7,0.8,2.4,2,2.4
			c1.2,0,2-0.6,2-2.4c0-1.8-0.8-3.1-3.3-5.3c-3.2-2.8-4.2-4.8-4.2-7.6C127.5,122.5,129.4,120.3,133.1,120.3z"/>
		<path class="st1" d="M146.2,120.5h6c3.8,0,5.7,2.1,5.7,6v12.3c0,3.9-1.9,6-5.7,6h-6V120.5z M150,124v17.3h2.1
			c1.2,0,1.9-0.6,1.9-2.4v-12.6c0-1.7-0.7-2.4-1.9-2.4H150z"/>
		<path class="st1" d="M164.2,130.7h5.2v3.5h-5.2v7.1h6.6v3.5h-10.4v-24.2h10.4v3.5h-6.6V130.7z"/>
		<path class="st1" d="M186.4,144.8c-0.2-0.6-0.3-1-0.3-3V138c0-2.2-0.8-3.1-2.5-3.1h-1.3v9.9h-3.8v-24.2h5.7c3.9,0,5.6,1.8,5.6,5.6
			v1.9c0,2.5-0.8,4.1-2.5,4.9v0.1c1.9,0.8,2.5,2.6,2.5,5.1v3.7c0,1.2,0,2,0.4,2.9H186.4z M182.3,124v7.4h1.5c1.4,0,2.3-0.6,2.3-2.6
			v-2.4c0-1.7-0.6-2.5-1.9-2.5H182.3z"/>
		<path class="st1" d="M192.4,120.5h3.8v24.2h-3.8V120.5z"/>
		<path class="st1" d="M202.8,130.7h5.2v3.5h-5.2v7.1h6.6v3.5h-10.4v-24.2h10.4v3.5h-6.6V130.7z"/>
		<path class="st1" d="M216.8,120.3c3.7,0,5.6,2.2,5.6,6.1v0.8h-3.6v-1c0-1.7-0.7-2.4-1.9-2.4s-1.9,0.7-1.9,2.4
			c0,1.8,0.8,3.1,3.3,5.3c3.2,2.8,4.2,4.8,4.2,7.6c0,3.9-1.9,6.1-5.7,6.1c-3.7,0-5.7-2.2-5.7-6.1v-1.5h3.6v1.7c0,1.7,0.8,2.4,2,2.4
			s2-0.6,2-2.4c0-1.8-0.8-3.1-3.3-5.3c-3.2-2.8-4.2-4.8-4.2-7.6C211.2,122.5,213.1,120.3,216.8,120.3z"/>
		<path class="st1" d="M230.3,131.3h5.3v7.7c0,3.9-1.9,6.1-5.7,6.1c-3.7,0-5.7-2.2-5.7-6.1v-12.6c0-3.9,1.9-6.1,5.7-6.1
			c3.7,0,5.7,2.2,5.7,6.1v2.4h-3.6v-2.6c0-1.7-0.8-2.4-2-2.4c-1.2,0-2,0.7-2,2.4v13.1c0,1.7,0.8,2.4,2,2.4c1.2,0,2-0.6,2-2.4v-4.5
			h-1.7V131.3z"/>
		<path class="st1" d="M237.8,126.3c0-3.9,2-6.1,5.8-6.1c3.7,0,5.8,2.2,5.8,6.1v12.6c0,3.9-2,6.1-5.8,6.1c-3.7,0-5.8-2.2-5.8-6.1
			V126.3z M241.6,139.2c0,1.7,0.8,2.4,2,2.4c1.2,0,2-0.7,2-2.4v-13.1c0-1.7-0.8-2.4-2-2.4c-1.2,0-2,0.7-2,2.4V139.2z"/>
		<path class="st1" d="M83.3,165.7h5.2v3.5h-5.2v7.1h6.6v3.5H79.5v-24.2h10.4v3.5h-6.6V165.7z"/>
		<path class="st1" d="M100.1,179.8c-0.2-0.6-0.3-1-0.3-3V173c0-2.2-0.8-3.1-2.5-3.1H96v9.9h-3.8v-24.2h5.7c3.9,0,5.6,1.8,5.6,5.6
			v1.9c0,2.5-0.8,4.1-2.5,4.9v0.1c1.9,0.8,2.5,2.6,2.5,5.1v3.7c0,1.2,0,2,0.4,2.9H100.1z M96,159v7.4h1.5c1.4,0,2.3-0.6,2.3-2.6
			v-2.4c0-1.7-0.6-2.5-1.9-2.5H96z"/>
		<path class="st1" d="M111.8,166.3h5.3v7.7c0,3.9-1.9,6.1-5.7,6.1c-3.7,0-5.7-2.2-5.7-6.1v-12.6c0-3.9,1.9-6.1,5.7-6.1
			c3.7,0,5.7,2.2,5.7,6.1v2.4h-3.6v-2.6c0-1.7-0.8-2.4-2-2.4c-1.2,0-2,0.7-2,2.4v13.1c0,1.7,0.8,2.4,2,2.4c1.2,0,2-0.6,2-2.4v-4.5
			h-1.7V166.3z"/>
		<path class="st1" d="M119.3,161.3c0-3.9,2-6.1,5.8-6.1c3.7,0,5.8,2.2,5.8,6.1v12.6c0,3.9-2,6.1-5.8,6.1c-3.7,0-5.8-2.2-5.8-6.1
			V161.3z M123.1,174.2c0,1.7,0.8,2.4,2,2.4c1.2,0,2-0.7,2-2.4v-13.1c0-1.7-0.8-2.4-2-2.4c-1.2,0-2,0.7-2,2.4V174.2z"/>
		<path class="st1" d="M136.8,162.2L136.8,162.2l-0.1,17.5h-3.4v-24.2h4.8l3.8,14.5h0.1v-14.5h3.4v24.2h-3.9L136.8,162.2z"/>
		<path class="st1" d="M147.8,161.3c0-3.9,2-6.1,5.8-6.1c3.7,0,5.8,2.2,5.8,6.1v12.6c0,3.9-2,6.1-5.8,6.1c-3.7,0-5.8-2.2-5.8-6.1
			V161.3z M151.6,174.2c0,1.7,0.8,2.4,2,2.4s2-0.7,2-2.4v-13.1c0-1.7-0.8-2.4-2-2.4s-2,0.7-2,2.4V174.2z"/>
		<path class="st1" d="M169.8,172.7L169.8,172.7l2.6-17.2h5.3v24.2h-3.6v-17.4h-0.1l-2.6,17.4h-3.6l-2.8-17.1h-0.1v17.1h-3.3v-24.2
			h5.3L169.8,172.7z"/>
		<path class="st1" d="M180.5,155.5h3.8v24.2h-3.8V155.5z"/>
		<path class="st1" d="M198.1,170.7v3.2c0,3.9-1.9,6.1-5.7,6.1c-3.7,0-5.7-2.2-5.7-6.1v-12.6c0-3.9,1.9-6.1,5.7-6.1
			c3.7,0,5.7,2.2,5.7,6.1v2.4h-3.6v-2.6c0-1.7-0.8-2.4-2-2.4c-1.2,0-2,0.7-2,2.4v13.1c0,1.7,0.8,2.4,2,2.4c1.2,0,2-0.6,2-2.4v-3.5
			H198.1z"/>
		<path class="st1" d="M200.1,161.3c0-3.9,2-6.1,5.8-6.1c3.7,0,5.8,2.2,5.8,6.1v12.6c0,3.9-2,6.1-5.8,6.1c-3.7,0-5.8-2.2-5.8-6.1
			V161.3z M203.9,174.2c0,1.7,0.8,2.4,2,2.4c1.2,0,2-0.7,2-2.4v-13.1c0-1.7-0.8-2.4-2-2.4c-1.2,0-2,0.7-2,2.4V174.2z"/>
	</g>
</g>
</svg>
