<?xml version="1.0" encoding="utf-8"?>
<!-- Generator: Adobe Illustrator 22.0.1, SVG Export Plug-In . SVG Version: 6.00 Build 0)  -->
<svg version="1.0" id="Capa_1" xmlns="http://www.w3.org/2000/svg" xmlns:xlink="http://www.w3.org/1999/xlink" x="0px" y="0px"
	 viewBox="0 0 348.3 289.6" style="enable-background:new 0 0 348.3 289.6;" xml:space="preserve">
<style type="text/css">
	.st0{fill:url(#SVGID_1_);}
	.st1{fill:#606060;}
</style>
<title>proyecto1</title>
<linearGradient id="SVGID_1_" gradientUnits="userSpaceOnUse" x1="-3.999397e-04" y1="143.9667" x2="591.2396" y2="143.9667" gradientTransform="matrix(1 0 0 -1 0 288.7717)">
	<stop  offset="0" style="stop-color:#13226F"/>
	<stop  offset="0.26" style="stop-color:#13226F"/>
	<stop  offset="0.99" style="stop-color:#B21E1C"/>
	<stop  offset="1" style="stop-color:#B21E1C"/>
</linearGradient>
<path class="st0" d="M340.7,98.3c-7.4-4.8-17.3-2.7-22.1,4.8c-0.1,0.2-0.3,0.4-0.4,0.7c-31.1,54-67.1,116.2-83.9,145.4
	c-2.9,5-8.2,8.1-14,8.1H109.1c-5.8,0-11.1-3.1-14-8.1l-55.6-96.3c-2.9-5-2.9-11.2,0-16.2l55.6-96.3c2.9-5,8.2-8.1,14-8.1h111.2
	c5.8,0,11.1,3.1,14,8.1l39.2,67.9c4.4,7.7,14.3,10.4,22,6c2.5-1.4,4.5-3.5,6-6l0,0c2.9-5,2.9-11.1,0-16.1L253,8.1
	c-2.9-5-8.2-8.1-14-8.1H90.4c-5.8,0-11.1,3.1-14,8.1L2.2,136.7c-2.9,5-2.9,11.2,0,16.2l74.3,128.6c2.9,5,8.2,8.1,14,8.1h148.5
	c5.8,0,11.1-3.1,14-8.1c12.8-22.1,23.8-41.1,93.3-161.5c4.3-7.4,2-16.8-5.2-21.5L340.7,98.3z"/>
<g>
	<g>
		<path class="st1" d="M78,121.5v3.1c0,3.9-1.9,6-5.7,6h-1.8v9.1h-3.8v-24.2h5.6C76.1,115.5,78,117.6,78,121.5z M70.5,119v8.2h1.8
			c1.2,0,1.9-0.6,1.9-2.3v-3.6c0-1.7-0.7-2.3-1.9-2.3H70.5z"/>
		<path class="st1" d="M79.8,115.5h3.8v20.8h6.3v3.5H79.8V115.5z"/>
		<path class="st1" d="M103.8,139.7H100l-0.7-4.4h-4.7l-0.7,4.4h-3.5l3.9-24.2h5.6L103.8,139.7z M95.1,132h3.7L97,119.8h-0.1
			L95.1,132z"/>
		<path class="st1" d="M109,122.2L109,122.2l-0.1,17.5h-3.4v-24.2h4.8l3.8,14.5h0.1v-14.5h3.4v24.2h-3.9L109,122.2z"/>
		<path class="st1" d="M125.7,115.5h6c3.8,0,5.7,2.1,5.7,6v12.3c0,3.9-1.9,6-5.7,6h-6V115.5z M129.5,119v17.3h2.1
			c1.2,0,1.9-0.6,1.9-2.4v-12.6c0-1.7-0.7-2.4-1.9-2.4H129.5z"/>
		<path class="st1" d="M143.6,125.7h5.2v3.5h-5.2v7.1h6.6v3.5h-10.4v-24.2h10.4v3.5h-6.6V125.7z"/>
		<path class="st1" d="M165.9,139.7c-0.2-0.6-0.3-1-0.3-3v-3.8c0-2.2-0.8-3.1-2.5-3.1h-1.3v9.9h-3.8v-24.2h5.7
			c3.9,0,5.6,1.8,5.6,5.6v1.9c0,2.5-0.8,4.1-2.5,4.9v0.1c1.9,0.8,2.5,2.6,2.5,5.1v3.7c0,1.2,0,2,0.4,2.9H165.9z M161.7,119v7.4h1.5
			c1.4,0,2.3-0.6,2.3-2.6v-2.4c0-1.7-0.6-2.5-1.9-2.5H161.7z"/>
		<path class="st1" d="M175.6,125.7h5.2v3.5h-5.2v7.1h6.6v3.5h-10.4v-24.2h10.4v3.5h-6.6V125.7z"/>
		<path class="st1" d="M189.7,115.2c3.7,0,5.6,2.2,5.6,6.1v0.8h-3.6v-1c0-1.7-0.7-2.4-1.9-2.4c-1.2,0-1.9,0.7-1.9,2.4
			c0,1.8,0.8,3.1,3.3,5.3c3.2,2.8,4.2,4.8,4.2,7.6c0,3.9-1.9,6.1-5.7,6.1s-5.7-2.2-5.7-6.1v-1.5h3.6v1.7c0,1.7,0.8,2.4,2,2.4
			c1.2,0,2-0.6,2-2.4c0-1.8-0.8-3.1-3.3-5.3c-3.2-2.8-4.2-4.8-4.2-7.6C184.1,117.4,186,115.2,189.7,115.2z"/>
		<path class="st1" d="M208.8,121.5v3.1c0,3.9-1.9,6-5.7,6h-1.8v9.1h-3.8v-24.2h5.6C206.9,115.5,208.8,117.6,208.8,121.5z
			 M201.3,119v8.2h1.8c1.2,0,1.9-0.6,1.9-2.3v-3.6c0-1.7-0.7-2.3-1.9-2.3H201.3z"/>
		<path class="st1" d="M214.2,115.5v18.7c0,1.7,0.8,2.4,2,2.4c1.2,0,2-0.6,2-2.4v-18.7h3.6v18.4c0,3.9-1.9,6.1-5.7,6.1
			s-5.7-2.2-5.7-6.1v-18.4H214.2z"/>
		<path class="st1" d="M228.1,125.7h5.2v3.5h-5.2v7.1h6.6v3.5h-10.4v-24.2h10.4v3.5h-6.6V125.7z"/>
		<path class="st1" d="M242.2,115.2c3.7,0,5.6,2.2,5.6,6.1v0.8h-3.6v-1c0-1.7-0.7-2.4-1.9-2.4c-1.2,0-1.9,0.7-1.9,2.4
			c0,1.8,0.8,3.1,3.3,5.3c3.2,2.8,4.2,4.8,4.2,7.6c0,3.9-1.9,6.1-5.7,6.1s-5.7-2.2-5.7-6.1v-1.5h3.6v1.7c0,1.7,0.8,2.4,2,2.4
			c1.2,0,2-0.6,2-2.4c0-1.8-0.8-3.1-3.3-5.3c-3.2-2.8-4.2-4.8-4.2-7.6C236.6,117.4,238.5,115.2,242.2,115.2z"/>
		<path class="st1" d="M248.9,115.5h11.8v3.5h-4v20.8h-3.8V119h-4V115.5z"/>
		<path class="st1" d="M273.3,139.7h-3.8l-0.7-4.4h-4.7l-0.7,4.4H260l3.9-24.2h5.6L273.3,139.7z M264.7,132h3.7l-1.8-12.3h-0.1
			L264.7,132z"/>
		<path class="st1" d="M103.2,174.7h-3.8l-0.7-4.4H94l-0.7,4.4h-3.5l3.9-24.2h5.6L103.2,174.7z M94.5,167h3.7l-1.8-12.3h-0.1
			L94.5,167z"/>
		<path class="st1" d="M114.1,160.7h5.2v3.5h-5.2v7.1h6.6v3.5h-10.4v-24.2h10.4v3.5h-6.6V160.7z"/>
		<path class="st1" d="M131,167.7L131,167.7l2.6-17.2h5.3v24.2h-3.6v-17.4h-0.1l-2.6,17.4h-3.6l-2.8-17.1h-0.1v17.1H123v-24.2h5.3
			L131,167.7z"/>
		<path class="st1" d="M145.5,160.7h5.2v3.5h-5.2v7.1h6.6v3.5h-10.4v-24.2h10.4v3.5h-6.6V160.7z"/>
		<path class="st1" d="M162.4,174.7c-0.2-0.6-0.3-1-0.3-3v-3.8c0-2.2-0.8-3.1-2.5-3.1h-1.3v9.9h-3.8v-24.2h5.7
			c3.9,0,5.6,1.8,5.6,5.6v1.9c0,2.5-0.8,4.1-2.5,4.9v0.1c1.9,0.8,2.5,2.6,2.5,5.1v3.7c0,1.2,0,2,0.4,2.9H162.4z M158.3,154v7.4h1.5
			c1.4,0,2.3-0.6,2.3-2.6v-2.4c0-1.7-0.6-2.5-1.9-2.5H158.3z"/>
		<path class="st1" d="M174.1,161.2h5.3v7.7c0,3.9-1.9,6.1-5.7,6.1c-3.7,0-5.7-2.2-5.7-6.1v-12.6c0-3.9,1.9-6.1,5.7-6.1
			c3.7,0,5.7,2.2,5.7,6.1v2.4h-3.6v-2.6c0-1.7-0.8-2.4-2-2.4c-1.2,0-2,0.7-2,2.4v13.1c0,1.7,0.8,2.4,2,2.4c1.2,0,2-0.6,2-2.4v-4.5
			h-1.7V161.2z"/>
		<path class="st1" d="M185.7,160.7h5.2v3.5h-5.2v7.1h6.6v3.5h-10.4v-24.2h10.4v3.5h-6.6V160.7z"/>
		<path class="st1" d="M198.1,157.2L198.1,157.2l-0.1,17.5h-3.4v-24.2h4.8l3.8,14.5h0.1v-14.5h3.4v24.2h-3.9L198.1,157.2z"/>
		<path class="st1" d="M220.4,165.7v3.2c0,3.9-1.9,6.1-5.7,6.1c-3.7,0-5.7-2.2-5.7-6.1v-12.6c0-3.9,1.9-6.1,5.7-6.1
			c3.7,0,5.7,2.2,5.7,6.1v2.4h-3.6v-2.6c0-1.7-0.8-2.4-2-2.4c-1.2,0-2,0.7-2,2.4v13.1c0,1.7,0.8,2.4,2,2.4c1.2,0,2-0.6,2-2.4v-3.5
			H220.4z"/>
		<path class="st1" d="M222.7,150.5h3.8v24.2h-3.8V150.5z"/>
		<path class="st1" d="M241.6,174.7h-3.8l-0.7-4.4h-4.7l-0.7,4.4h-3.5l3.9-24.2h5.6L241.6,174.7z M233,167h3.7l-1.8-12.3h-0.1
			L233,167z"/>
		<path class="st1" d="M248.5,150.2c3.7,0,5.6,2.2,5.6,6.1v0.8h-3.6v-1c0-1.7-0.7-2.4-1.9-2.4c-1.2,0-1.9,0.7-1.9,2.4
			c0,1.8,0.8,3.1,3.3,5.3c3.2,2.8,4.2,4.8,4.2,7.6c0,3.9-1.9,6.1-5.7,6.1s-5.7-2.2-5.7-6.1v-1.5h3.6v1.7c0,1.7,0.8,2.4,2,2.4
			c1.2,0,2-0.6,2-2.4c0-1.8-0.8-3.1-3.3-5.3c-3.2-2.8-4.2-4.8-4.2-7.6C242.9,152.4,244.8,150.2,248.5,150.2z"/>
	</g>
</g>
</svg>
