<?xml version="1.0" encoding="utf-8"?>
<!-- Generator: Adobe Illustrator 22.0.1, SVG Export Plug-In . SVG Version: 6.00 Build 0)  -->
<svg version="1.0" id="Capa_1" xmlns="http://www.w3.org/2000/svg" xmlns:xlink="http://www.w3.org/1999/xlink" x="0px" y="0px"
	 viewBox="0 0 389 139" style="enable-background:new 0 0 389 139;" xml:space="preserve">
<style type="text/css">
	.st0{fill:#253063;}
	.st1{fill:#D41D19;}
	.st2{clip-path:url(#SVGID_2_);fill:url(#SVGID_3_);}
</style>
<g>
	<path class="st0" d="M136.4,70.9c0-12.3-3.9-23.6-10.5-33c-3.7-5.4-8.3-10-13.8-13.8c-6.6-4.7-14.3-8-22.6-9.6
		c-0.3-0.1-0.6-0.1-1-0.2c-0.7-0.1-1.3-0.2-2-0.3c-0.4-0.1-0.8-0.1-1.2-0.2c-0.2,0-0.4,0-0.6-0.1c-1.7-0.2-3.4-0.4-5-0.6h-2.3
		c-4.1,0.6-8.3,0.7-12.2,1.8c-23.3,6.2-37.7,21.3-43,44.8c-0.8,3.3-0.9,6.8-1.4,10.5c-5.1-4.7-5.8-10.5-4.7-16.8c-0.2,0-0.3,0-0.5,0
		c-0.1,0.5-0.2,1-0.3,1.4c-2.2,4.3-7.3,17.6,6.5,26.6c0.2,0.2,0.3,0.5,0.4,0.7c1.6,4.6,3.2,9.2,4.7,13.8c0.1,0.2,0,0.3,0.1,0.8
		c-5.1-2.3-8.6-5.8-11.3-10.5c0.5,1.5,1,2.9,1.6,4.4c0.6,1.4,1.2,2.9,1.9,4.3c3.7,8,9.6,13.6,18.1,16.4c0.4,0.1,0.7,0.2,1,0.5
		c3.7,3,7.5,6,11.4,9.2c-1.3-0.3-2.5-0.5-3.7-0.8c-1.2-0.3-2.3-0.7-3.6-1c19.8,11.3,40.2,8.8,40.2,8.8v0
		C112.7,126.2,136.4,101.3,136.4,70.9 M85.2,123.5c-2.4,0.3-4.8,0.3-7.2,0.5l-0.1-0.5c8.1-2.2,15.6-5.7,22.8-10.2
		c0.2,0.7,0.4,1.2,0.6,2c4.2-4.5,7.6-9.4,10.3-14.7c-5.8,1.6-11.5,3.1-17.4,4.7c0.9,0.7,1.7,1.4,2.8,2.3c-0.5,0.4-0.9,0.8-1.4,1.1
		c-9.4,6.2-19.6,10.7-30.8,12.3c-1.3,0.2-2.7,0-4-0.4c-4.7-1.5-9.1-3.9-13.4-7.1c26.3,0.7,46.7-10.7,64.4-29.1
		c0.8,2.7,1.6,5.1,2.5,7.9c4.9-13.3,6.1-26.6,2.8-40.4c-8.5,5.1-17.7,8.1-27.7,9.9c3.1,2.1,5.9,4,9.2,6.2c-3.9,4-7.3,8-11.3,11.5
		c-10.6,9.4-22.8,15.9-36.7,18.8c-4.9,1-9.9,1.5-15,0.6c-0.9-0.1-2-0.8-2.4-1.6c-0.2-0.3-0.4-0.6-0.5-0.9c-2-3.7-3.7-7.7-4.8-11.8
		c-0.1-0.2-0.1-0.4-0.2-0.6c8.2,2.7,16.3,2.3,24.3,0.6c8-1.8,15.5-5,22.7-9.3c0.8,1.7,1.6,3.4,2.6,5.3c2.4-6.4,4.1-12.7,4.3-19.2
		c-6-0.3-12-0.5-17.8-0.8c1,1.1,2.1,2.4,3.3,3.7c-0.1,0.2-0.2,0.4-0.3,0.5c-9.8,6.7-20.3,11.2-32.5,10.4c-2.2-0.1-4.3-0.8-6.4-1.2
		c-1-0.2-1.5-0.6-1.8-1.3c0-0.6-0.1-1.3-0.1-1.9c0-15.8,6.9-30,17.8-39.8c2.9-2.5,6.2-4.7,9.8-6.8c31.9-17.8,71.9,2.1,77.6,38.3
		C135.7,92.2,115,119.7,85.2,123.5"/>
	<path class="st1" d="M337.6,85.5v-10h12.9c0-2.6,0-4.9,0-7.2c0-2.5,0-2.5-2.5-2.5c-3.4,0-6.9,0-10.4,0v-9.9h14.6v-9.7h-24.4v49.1
		H353v-9.7H337.6z"/>
	<path class="st1" d="M299.8,47.3c-0.2-0.5-0.9-1.1-1.5-1.2c-1.2-0.4-1.4,0.6-1.8,1.5c-6.4,15.7-12.7,31.5-19.1,47.2
		c-0.2,0.5-0.3,1-0.5,1.6c3.3,0,6.4-0.1,9.5,0c1.3,0,1.9-0.4,2.3-1.6c2.9-7.7,5.8-15.3,8.7-23c0.2-0.5,0.4-1.1,0.8-2
		c0.4,1.1,0.6,1.7,0.8,2.2c2.9,7.6,5.8,15.2,8.8,22.8c0.2,0.6,1,1.4,1.6,1.4c3.3,0.1,6.6,0.1,10.2,0.1c-0.2-0.6-0.3-0.9-0.4-1.2
		C312.8,79.2,306.3,63.3,299.8,47.3"/>
	<path class="st0" d="M211.8,75.6h12.9c0-2.6,0-4.9,0-7.2c0-2.5,0-2.5-2.5-2.5c-3.4,0-6.9,0-10.4,0v-9.9h14.6v-9.7H202v49.1h25.2
		v-9.7h-15.4V75.6z"/>
	<path class="st0" d="M187.9,70.4c-2.7-1.9-5.9-3.2-8.9-4.7c-1.1-0.6-2.3-1-3.4-1.7c-1.6-1.1-2.3-2.6-2-4.6c0.3-2,1.3-3.5,3.3-3.9
		c1.5-0.3,3.1-0.4,4.6-0.2c2.3,0.3,4.6,1,7,1.6c0.4-2.8,0.8-5.5,1-8.2c0-0.4-0.6-1.2-1.1-1.3c-3.8-1.3-7.8-2-11.8-1.6
		c-6,0.5-10.9,4.6-12.5,10.4c-1.8,6.3,0,11.6,5.4,15.3c2.4,1.6,5.2,2.7,7.8,4c1.1,0.5,2.2,0.9,3.3,1.4c1.9,1,2.9,2.6,2.6,4.8
		c-0.3,2.1-1.7,3.4-3.7,3.8c-1.4,0.3-3,0.4-4.5,0.3c-3.9-0.3-7.5-1.5-11-3.8c-0.4,3.3-0.8,6.3-1.1,9.3c0,0.4,0.4,1.2,0.8,1.4
		c6.1,2.8,12.5,4.3,19.2,2.3c5.5-1.6,8.8-5.3,10-10.9C194.3,78.4,192.6,73.7,187.9,70.4"/>
	<g>
		<defs>
			<path id="SVGID_1_" d="M236.9,59.1c-4.7,10.1-2.5,23,5.2,30.1c7.4,6.7,16.1,7.5,25.4,5.2c2.8-0.7,2.8-0.8,2.5-3.6
				c-0.3-2.4-0.6-4.9-1-7.4c-10,4.1-17.3,1.6-21.1-3.3c-4.1-5.4-4.2-13.5-0.2-19c4.2-5.9,10.7-7.1,20.3-3.9c0.4-3,0.8-6,1-8.9
				c0-0.4-0.6-1.2-1.1-1.4c-1.9-0.6-3.7-1-5.7-1.3c-1.2-0.2-2.4-0.2-3.6-0.2C249.3,45.3,240.9,50.5,236.9,59.1"/>
		</defs>
		<clipPath id="SVGID_2_">
			<use xlink:href="#SVGID_1_"  style="overflow:visible;"/>
		</clipPath>
		
			<linearGradient id="SVGID_3_" gradientUnits="userSpaceOnUse" x1="-299.5111" y1="1609.4514" x2="-296.4911" y2="1609.4514" gradientTransform="matrix(11.8068 0 0 -11.8068 3770.6968 19073.4941)">
			<stop  offset="0" style="stop-color:#253063"/>
			<stop  offset="0.2551" style="stop-color:#253063"/>
			<stop  offset="0.9942" style="stop-color:#D11C1A"/>
			<stop  offset="1" style="stop-color:#D11C1A"/>
		</linearGradient>
		<rect x="232.2" y="45.3" class="st2" width="38.1" height="51.3"/>
	</g>
</g>
</svg>
