<?xml version="1.0" encoding="utf-8"?>
<!-- Generator: Adobe Illustrator 22.0.1, SVG Export Plug-In . SVG Version: 6.00 Build 0)  -->
<svg version="1.0" id="Capa_1" xmlns="http://www.w3.org/2000/svg" xmlns:xlink="http://www.w3.org/1999/xlink" x="0px" y="0px"
	 viewBox="0 0 389 139" style="enable-background:new 0 0 389 139;" xml:space="preserve">
<style type="text/css">
	.st0{fill:#FFFFFF;}
</style>
<g>
	<path class="st0" d="M211.8,75.5h13c0-2.6,0-5,0-7.3c0-2.6,0-2.6-2.5-2.6c-3.5,0-6.9,0-10.4,0v-10h14.7v-9.7H202v49.4h25.3v-9.8
		h-15.5V75.5z"/>
	<path class="st0" d="M300.4,47.1c-0.2-0.5-0.9-1.1-1.5-1.3c-1.2-0.4-1.4,0.6-1.8,1.5c-6.4,15.8-12.8,31.7-19.2,47.5
		c-0.2,0.5-0.3,1-0.5,1.7c3.3,0,6.4-0.1,9.5,0c1.3,0,1.9-0.4,2.4-1.6c2.9-7.7,5.9-15.4,8.8-23.2c0.2-0.5,0.4-1.1,0.8-2
		c0.4,1.1,0.6,1.7,0.8,2.3c2.9,7.7,5.8,15.3,8.8,23c0.2,0.6,1,1.4,1.6,1.4c3.3,0.1,6.7,0.1,10.3,0.1c-0.2-0.6-0.3-0.9-0.4-1.2
		C313.5,79.2,307,63.2,300.4,47.1"/>
	<path class="st0" d="M187.8,70.3c-2.7-1.9-6-3.2-9-4.8c-1.1-0.6-2.3-1-3.4-1.7c-1.6-1.1-2.3-2.7-2-4.6c0.3-2,1.3-3.5,3.3-4
		c1.5-0.3,3.1-0.4,4.7-0.2c2.3,0.3,4.6,1,7.1,1.6c0.4-2.8,0.8-5.5,1-8.3c0-0.4-0.6-1.2-1.1-1.3c-3.8-1.4-7.8-2-11.9-1.6
		c-6,0.5-10.9,4.7-12.6,10.5c-1.8,6.4,0,11.7,5.4,15.4c2.4,1.6,5.2,2.7,7.9,4c1.1,0.5,2.2,0.9,3.3,1.5c1.9,1,2.9,2.7,2.6,4.8
		c-0.3,2.1-1.7,3.4-3.7,3.8c-1.4,0.3-3,0.4-4.5,0.3c-3.9-0.3-7.5-1.5-11.1-3.9c-0.4,3.3-0.8,6.3-1.1,9.3c0,0.5,0.4,1.2,0.8,1.4
		c6.2,2.9,12.6,4.3,19.3,2.4c5.5-1.6,8.9-5.3,10.1-10.9C194.3,78.4,192.6,73.6,187.8,70.3"/>
	<path class="st0" d="M269.4,83.4c-10,4.1-17.5,1.6-21.2-3.4c-4.1-5.4-4.2-13.6-0.2-19.2c4.2-5.9,10.8-7.2,20.5-3.9c0.4-3,0.8-6,1-9
		c0-0.4-0.6-1.2-1.1-1.4c-1.9-0.6-3.8-1-5.7-1.3c-10.9-1.5-21.1,3.9-25.6,13.6c-4.7,10.2-2.6,23.2,5.2,30.3
		c7.4,6.7,16.2,7.6,25.5,5.3c2.8-0.7,2.8-0.8,2.5-3.6C270.1,88.4,269.7,86,269.4,83.4"/>
	<path class="st0" d="M338.5,85.5v-10h13c0-2.6,0-5,0-7.3c0-2.6,0-2.6-2.5-2.6c-3.5,0-6.9,0-10.4,0v-10h14.7v-9.7h-24.5v49.4H354
		v-9.8H338.5z"/>
	<path class="st0" d="M136,70.9c0-12.4-3.9-23.8-10.6-33.2c-3.7-5.5-8.3-10.1-13.9-13.9c-6.7-4.7-14.4-8.1-22.7-9.6
		c-0.3-0.1-0.6-0.1-1-0.2c-0.7-0.1-1.3-0.2-2-0.3c-0.4-0.1-0.8-0.1-1.2-0.2c-0.2,0-0.4,0-0.6-0.1c-1.7-0.2-3.4-0.4-5.1-0.6h-2.3
		c-4.1,0.6-8.3,0.8-12.3,1.8C41,21,26.6,36.1,21.2,59.8c-0.8,3.4-0.9,6.8-1.4,10.5c-5.1-4.8-5.8-10.6-4.8-17c-0.2,0-0.3,0-0.5,0
		c-0.1,0.5-0.2,1-0.3,1.4c-2.2,4.3-7.4,17.7,6.6,26.8c0.1,0.2,0.3,0.5,0.4,0.7c1.6,4.6,3.2,9.3,4.7,13.9c0.1,0.2,0,0.3,0.1,0.8
		c-5.1-2.3-8.7-5.9-11.4-10.6c0.5,1.5,1,3,1.6,4.4c0.6,1.5,1.2,2.9,1.9,4.3c3.7,8.1,9.7,13.7,18.2,16.5c0.4,0.1,0.7,0.2,1,0.5
		c3.8,3,7.5,6.1,11.4,9.2c-1.3-0.3-2.5-0.5-3.7-0.9c-1.2-0.3-2.4-0.8-3.6-1c19.9,11.4,40.5,8.9,40.5,8.9l0,0
		C112.1,126.5,136,101.4,136,70.9 M84.4,123.8c-2.4,0.3-4.8,0.3-7.3,0.5c0-0.2-0.1-0.3-0.1-0.5c8.1-2.2,15.7-5.7,23-10.2
		c0.2,0.7,0.4,1.2,0.6,2c4.3-4.5,7.6-9.4,10.3-14.8c-5.8,1.6-11.6,3.1-17.5,4.7c0.9,0.7,1.8,1.5,2.8,2.3c-0.5,0.4-0.9,0.8-1.4,1.1
		c-9.5,6.2-19.7,10.7-31,12.4c-1.3,0.2-2.8,0-4-0.4c-4.8-1.6-9.1-3.9-13.5-7.2c26.5,0.7,47.1-10.8,64.8-29.3c0.8,2.7,1.6,5.2,2.5,8
		c4.9-13.4,6.1-26.7,2.8-40.7c-8.6,5.1-17.8,8.1-27.9,10c3.1,2.1,5.9,4,9.2,6.2c-3.9,4-7.4,8.1-11.4,11.6c-10.7,9.5-22.9,16-37,18.9
		c-5,1-10,1.5-15.1,0.6c-0.9-0.1-2-0.8-2.5-1.6c-0.2-0.3-0.4-0.6-0.5-0.9c-2.1-3.7-3.7-7.7-4.8-11.9c-0.1-0.2-0.1-0.4-0.2-0.6
		c8.3,2.7,16.4,2.3,24.5,0.6c8.1-1.8,15.6-5,22.9-9.3c0.8,1.7,1.6,3.4,2.6,5.4c2.5-6.5,4.1-12.8,4.3-19.4c-6.1-0.3-12-0.5-18-0.8
		c1,1.1,2.1,2.4,3.3,3.7c-0.1,0.2-0.2,0.4-0.3,0.5c-9.8,6.8-20.4,11.3-32.7,10.5c-2.2-0.1-4.3-0.8-6.5-1.2c-1-0.2-1.5-0.6-1.8-1.4
		c0-0.6,0-1.3,0-1.9c0-15.9,6.9-30.2,17.9-40c2.9-2.5,6.2-4.8,9.9-6.8c32.2-17.9,72.4,2.2,78.1,38.5
		C135.2,92.3,114.4,119.9,84.4,123.8"/>
</g>
</svg>
